<svg width="349" height="55" viewBox="0 0 349 55" fill="none" xmlns="http://www.w3.org/2000/svg">
    <defs>
        <linearGradient id="paint0_linear_1809_19833" x1="70.4784" y1="90.6551" x2="181.994" y2="-93.2581" gradientUnits="userSpaceOnUse">
            <stop stop-color="#002439"/>
            <stop offset="1" stop-color="#007FAE"/>
        </linearGradient>
        <linearGradient id="paint1_linear_1809_19833" x1="352.632" y1="1.83587" x2="337.87" y2="98.5606" gradientUnits="userSpaceOnUse">
            <stop stop-color="white"/>
            <stop offset="0.260417" stop-color="#F5F5F5" stop-opacity="0.84787"/>
            <stop offset="0.513542" stop-color="#EBEBEB" stop-opacity="0.7"/>
            <stop offset="1" stop-color="white" stop-opacity="0.5"/>
        </linearGradient>
    </defs>
    <path d="M1.71745 45.9552C1.71745 49.9628 7.07243 53.2156 13.6817 53.2156C13.6817 53.2156 39.2892 55 171.958 55C304.626 55 334.681 53.2156 334.681 53.2156C341.291 53.2156 346.646 49.9686 346.646 45.9552C346.646 45.9552 349 32.7625 349 26.6195C349 20.4765 346.646 9.58887 346.646 9.58887C346.646 5.58132 341.291 2.33433 334.681 2.33433C334.681 2.33433 296.917 0 173.887 0C50.8578 0 13.6817 2.33433 13.6817 2.33433C7.07243 2.33433 1.71745 5.58132 1.71745 9.58887C1.71745 9.58887 0 19.049 0 26.4908C0 33.9326 1.71745 45.9552 1.71745 45.9552Z" fill="url(#paint0_linear_1809_19833)"/>
<path d="M3.61808 44.5394C3.61808 48.3422 8.92482 51.4254 15.4666 51.4254C15.4666 51.4254 40.8135 53.1161 172.112 53.1161C303.41 53.1161 333.166 51.4254 333.166 51.4254C339.708 51.4254 345.015 48.3422 345.015 44.5394C345.015 44.5394 347.35 32.0253 347.35 26.1983C347.35 20.3712 345.015 10.0452 345.015 10.0452C345.015 6.2424 339.708 3.15922 333.166 3.15922C333.166 3.15922 295.788 0.947754 174.022 0.947754C52.2567 0.947754 15.4666 3.15922 15.4666 3.15922C8.92482 3.15922 3.61808 6.2424 3.61808 10.0452C3.61808 10.0452 1.91992 19.0139 1.91992 26.0754C1.91992 33.1369 3.61808 44.5394 3.61808 44.5394Z" fill="white"/>
<path d="M8.86695 34.7342C8.86695 37.4898 14.0193 39.7305 20.3874 39.7305C20.3874 39.7305 45.03 40.9532 172.681 40.9532C300.332 40.9532 329.259 39.7305 329.259 39.7305C335.617 39.7305 340.77 37.4956 340.77 34.7342C340.77 34.7342 343.037 25.6543 343.037 21.4303C343.037 17.2063 340.77 9.71186 340.77 9.71186C340.77 6.9563 335.617 4.72143 329.259 4.72143C329.259 4.72143 292.922 3.11841 174.543 3.11841C56.1645 3.11841 20.3874 4.71558 20.3874 4.71558C14.029 4.71558 8.86695 6.95045 8.86695 9.70601C8.86695 9.70601 7.21704 16.2117 7.21704 21.3367C7.21704 26.4617 8.86695 34.7342 8.86695 34.7342Z" fill="url(#paint1_linear_1809_19833)"/>
<path opacity="0.4" d="M327.175 5.17763C327.175 5.17763 339.4 4.03094 340.364 8.91021C340.364 8.91021 341.85 15.9307 329.047 10.4723C329.047 10.4723 316.88 7.61726 275.391 6.02594C275.391 6.02594 263.851 3.66821 278.305 3.65651C278.305 3.65066 310.444 4.96116 327.175 5.17763Z" fill="white"/>
<path opacity="0.3" d="M342.68 32.8968C342.68 32.8968 343.819 39.1451 340.558 42.2634C337.287 45.3817 333.34 43.2404 333.061 42.2634L333.987 34.845C333.987 34.8392 338.753 28.0117 342.68 32.8968Z" fill="white"/>

</svg>
