<svg width="351" height="55" viewBox="0 0 351 55" fill="none" xmlns="http://www.w3.org/2000/svg">
    <defs>
        <linearGradient id="paint0_linear_747_8124" x1="70.8284" y1="90.2344" x2="181.331" y2="-93.7663" gradientUnits="userSpaceOnUse">
            <stop stop-color="#004C1D"/>
            <stop offset="0.1717" stop-color="#04501E"/>
            <stop offset="0.3497" stop-color="#115B22"/>
            <stop offset="0.5305" stop-color="#256F28"/>
            <stop offset="0.7134" stop-color="#428A30"/>
            <stop offset="0.896" stop-color="#67AC3B"/>
            <stop offset="1" stop-color="#80C342"/>
        </linearGradient>
        <linearGradient id="paint1_linear_747_8124" x1="144" y1="105" x2="146.09" y2="-37.6123" gradientUnits="userSpaceOnUse">
            <stop stop-color="#3EB549"/>
            <stop offset="0.867987" stop-color="#61FF00"/>
        </linearGradient>
        <linearGradient id="paint2_linear_747_8124" x1="80.6027" y1="79.2211" x2="181.415" y2="-88.6432" gradientUnits="userSpaceOnUse">
            <stop stop-color="#C7FF7B"/>
            <stop offset="1" stop-color="#A1FF43" stop-opacity="0.54"/>
        </linearGradient>
    </defs>
    <path d="M1.72598 45.742C1.72598 49.7309 7.10754 52.9687 13.7496 52.9687C13.7496 52.9687 39.4842 54.7448 172.811 54.7448C306.138 54.7448 336.343 52.9687 336.343 52.9687C342.985 52.9687 348.366 49.7368 348.366 45.742C348.366 45.742 350.732 32.6104 350.732 26.496C350.732 20.3815 348.366 9.54438 348.366 9.54438C348.366 5.55542 342.985 2.32349 336.343 2.32349C336.343 2.32349 298.391 0 174.75 0C51.1103 0 13.7496 2.32349 13.7496 2.32349C7.10754 2.32349 1.72598 5.55542 1.72598 9.54438C1.72598 9.54438 0 18.9606 0 26.3679C0 33.7751 1.72598 45.742 1.72598 45.742Z" fill="url(#paint0_linear_747_8124)"/>
<path d="M3.63627 44.3327C3.63627 48.1179 8.96935 51.1867 15.5436 51.1867C15.5436 51.1867 41.0163 52.8697 172.966 52.8697C304.916 52.8697 334.82 51.1867 334.82 51.1867C341.395 51.1867 346.728 48.1179 346.728 44.3327C346.728 44.3327 349.074 31.8767 349.074 26.0767C349.074 20.2767 346.728 9.99858 346.728 9.99858C346.728 6.21344 341.395 3.14456 334.82 3.14456C334.82 3.14456 297.256 0.943359 174.886 0.943359C52.5164 0.943359 15.5436 3.14456 15.5436 3.14456C8.96935 3.14456 3.63627 6.21344 3.63627 9.99858C3.63627 9.99858 1.92969 18.9257 1.92969 25.9544C1.92969 32.9831 3.63627 44.3327 3.63627 44.3327Z" fill="url(#paint1_linear_747_8124)"/>
<path d="M8.91114 34.5726C8.91114 37.3154 14.0891 39.5457 20.4791 39.5457C20.4791 39.5457 45.244 40.7628 173.529 40.7628C301.814 40.7628 330.884 39.5457 330.884 39.5457C337.274 39.5457 342.452 37.3212 342.452 34.5726C342.452 34.5726 344.73 25.5349 344.73 21.3304C344.73 17.126 342.452 9.66638 342.452 9.66638C342.452 6.92361 337.274 4.69911 330.884 4.69911C330.884 4.69911 294.367 3.10353 175.4 3.10353C56.4337 3.09771 20.4888 4.69329 20.4888 4.69329C14.0988 4.69329 8.92084 6.91779 8.92084 9.66056C8.92084 9.66056 7.26274 16.1361 7.26274 21.2373C7.25304 26.3385 8.91114 34.5726 8.91114 34.5726Z" fill="url(#paint2_linear_747_8124)"/>
<path opacity="0.8" d="M328.799 5.15372C328.799 5.15372 341.084 4.01236 342.054 8.86899C342.054 8.86899 343.547 15.8569 330.68 10.4238C330.68 10.4238 318.453 7.58204 276.758 5.9981C276.758 5.9981 265.161 3.65131 279.686 3.63967C279.686 3.63384 311.985 4.93826 328.799 5.15372Z" fill="white"/>
<path opacity="0.6" d="M344.381 32.7441C344.381 32.7441 345.525 38.9634 342.238 42.0672C338.951 45.171 334.985 43.0397 334.704 42.0672L335.635 34.6833C335.645 34.6775 340.435 27.8817 344.381 32.7441Z" fill="white"/>

</svg>
