<svg width="353" height="58" viewBox="0 0 353 58" fill="none" xmlns="http://www.w3.org/2000/svg">
    <defs>
        <linearGradient id="paint0_linear_747_8123" x1="71.2304" y1="94.9017" x2="189.825" y2="-93.9276" gradientUnits="userSpaceOnUse">
            <stop stop-color="#3E0000"/>
            <stop offset="1" stop-color="#B11116"/>
        </linearGradient>
        <linearGradient id="paint1_linear_747_8123" x1="176.498" y1="0.992187" x2="176.498" y2="55.6043" gradientUnits="userSpaceOnUse">
            <stop stop-color="#FF3232"/>
            <stop offset="1" stop-color="#FF9297"/>
        </linearGradient>
        <linearGradient id="paint2_linear_747_8123" x1="219.5" y1="-3.49975" x2="217.5" y2="69.0002" gradientUnits="userSpaceOnUse">
            <stop stop-color="#FF0C15"/>
            <stop offset="1" stop-color="#FFBABE"/>
        </linearGradient>
    </defs>
<path d="M1.73578 48.1079C1.73578 52.3032 7.14789 55.7084 13.8277 55.7084C13.8277 55.7084 39.7083 57.5764 173.792 57.5764C307.876 57.5764 338.252 55.7084 338.252 55.7084C344.932 55.7084 350.344 52.3093 350.344 48.1079C350.344 48.1079 352.723 34.2972 352.723 27.8664C352.723 21.4357 350.344 10.038 350.344 10.038C350.344 5.84277 344.932 2.44367 338.252 2.44367C338.252 2.44367 300.084 0 175.742 0C51.4004 0 13.8277 2.44367 13.8277 2.44367C7.14789 2.44367 1.73578 5.84277 1.73578 10.038C1.73578 10.038 0 19.9413 0 27.7317C0 35.5221 1.73578 48.1079 1.73578 48.1079Z" fill="url(#paint0_linear_747_8123)"/>
<path d="M3.65695 46.6258C3.65695 50.6067 9.0203 53.8343 15.6318 53.8343C15.6318 53.8343 41.2492 55.6043 173.948 55.6043C306.647 55.6043 336.721 53.8343 336.721 53.8343C343.333 53.8343 348.696 50.6067 348.696 46.6258C348.696 46.6258 351.056 33.5255 351.056 27.4255C351.056 21.3255 348.696 10.5158 348.696 10.5158C348.696 6.53485 343.333 3.30725 336.721 3.30725C336.721 3.30725 298.944 0.992188 175.879 0.992188C52.8145 0.992188 15.6318 3.30725 15.6318 3.30725C9.0203 3.30725 3.65695 6.53485 3.65695 10.5158C3.65695 10.5158 1.94067 19.9046 1.94067 27.2969C1.94067 34.6891 3.65695 46.6258 3.65695 46.6258Z" fill="url(#paint1_linear_747_8123)"/>
<path d="M8.9617 36.3614C8.9617 39.2461 14.169 41.5917 20.6051 41.5917C20.6051 41.5917 45.5105 42.8718 174.523 42.8718C303.536 42.8718 332.772 41.5917 332.772 41.5917C339.198 41.5917 344.405 39.2522 344.405 36.3614C344.405 36.3614 346.697 26.8562 346.697 22.4343C346.697 18.0124 344.405 10.167 344.405 10.167C344.405 7.28233 339.198 4.94278 332.772 4.94278C332.772 4.94278 296.047 3.26467 176.406 3.26467C56.7541 3.25854 20.6051 4.93665 20.6051 4.93665C14.1788 4.93665 8.9617 7.27621 8.9617 10.1608C8.9617 10.1608 7.29419 16.9713 7.29419 22.3363C7.29419 27.7014 8.9617 36.3614 8.9617 36.3614Z" fill="url(#paint2_linear_747_8123)"/>
<path opacity="0.3" d="M330.665 5.42051C330.665 5.42051 343.02 4.22011 343.996 9.32794C343.996 9.32794 345.507 16.6773 332.557 10.9632C332.557 10.9632 320.26 7.97443 278.329 6.30857C278.329 6.30857 266.666 3.84039 281.274 3.82815C281.274 3.82202 313.756 5.19391 330.665 5.42051Z" fill="white"/>
<path opacity="0.2" d="M346.336 34.4383C346.336 34.4383 347.487 40.9793 344.191 44.2436C340.885 47.508 336.897 45.2664 336.614 44.2436L337.55 36.4778C337.55 36.4716 342.367 29.3244 346.336 34.4383Z" fill="white"/>

</svg>
