<svg width="358" height="303" viewBox="0 0 358 303" fill="none" xmlns="http://www.w3.org/2000/svg">
    <defs>
        <radialGradient id="paint0_radial_1809_46001" cx="0" cy="0" r="1" gradientUnits="userSpaceOnUse" gradientTransform="translate(179 151.501) rotate(5.25723) scale(150.624 167.419)">
            <stop stop-color="white"/>
            <stop offset="0.247917" stop-color="white"/>
            <stop offset="0.508333" stop-color="white" stop-opacity="0.6"/>
            <stop offset="0.951042" stop-color="white" stop-opacity="0"/>
        </radialGradient>
    </defs>
<path opacity="0.5" d="M178.996 111.56L145.421 2.67767C131.399 4.93207 117.957 8.5575 105.303 13.3976L161.615 120.771L91.7223 19.213C80.1672 24.6879 69.4084 31.2119 59.6104 38.6284L138.756 121.36L43.4333 52.5688C29.3681 66.3621 18.2025 82.3176 10.7068 99.7731L122.467 133.736L4.51817 117.532C1.56664 128.455 0 139.828 0 151.505C0 157.026 0.354875 162.482 1.03866 167.856L128.924 150.262L6.79457 192.985C11.7801 207.828 19.3797 221.741 29.1257 234.356L134.87 162.657L42.8101 249.815C54.3392 261.243 67.8418 271.208 82.8677 279.324L154.336 173.34L98.2745 286.759C109.622 291.618 121.653 295.491 134.229 298.234L166.212 192.203L146.892 300.571C157.305 302.163 168.029 303 178.987 303C179.1 303 179.212 303 179.316 303L182.302 188.072L190.992 302.66C204.434 301.905 217.469 299.899 229.942 296.771L191.996 187.419L241.696 293.44C258.574 288.093 274.241 280.658 288.263 271.494L200.21 178.475L297.991 264.675C309.772 255.796 320.15 245.628 328.822 234.42L213.496 169.383L339.157 219.219C346.852 206.208 352.391 192.139 355.395 177.334L232.123 159.86L357.489 163.053C357.827 159.243 358 155.397 358 151.514C358 141.567 356.857 131.859 354.694 122.446L232.123 140.435L350.375 107.65C345.778 94.7674 339.209 82.6121 330.96 71.4229L221.979 134.758L322.227 60.6294C312.091 49.2102 300.095 39.0425 286.627 30.4481L207.723 120.771L266.286 19.213C253.623 13.2135 240.008 8.48389 225.692 5.21732L194.87 111.56L214.102 2.92611C202.755 1.01218 191.018 0 178.996 0C175.94 0 172.911 0.0644113 169.89 0.193234L178.996 111.56Z" fill="url(#paint0_radial_1809_46001)"/>

</svg>
