<svg width="352" height="250" viewBox="0 0 352 250" fill="none" xmlns="http://www.w3.org/2000/svg">
<path d="M177.614 232.21C177.614 232.21 85.9415 230.474 38.1415 239.897C38.1415 239.897 17.535 242.866 6.13018 250.314L-0.0117188 46.0252L13.1511 39.0806L348.386 39.3322L351.023 40.8167L350.144 245.848C350.144 245.848 306.171 224.032 177.614 232.21Z" fill="#056BB1"/>
<path d="M177.581 232.21C177.581 232.21 296.202 219.076 347.941 243.37L348.597 37.7222L343.801 34.124L177.581 232.21Z" fill="#ADA996"/>
<path d="M177.581 232.21C177.581 232.21 286.444 214.232 345.637 238.526L345.971 31.7715C345.971 31.7715 343.801 21.7319 301.698 15.2905L177.581 232.21Z" fill="#D0C9B2"/>
<path d="M177.614 232.21C177.614 232.21 58.7591 223.039 7.00914 247.333L2.18018 41.0687L11.393 34.124L177.614 232.21Z" fill="#ADA996"/>
<path d="M177.614 232.211C177.614 232.211 268.029 213.251 343.022 234.073V23.5943C343.022 23.5943 328.224 15.4167 316.708 12.4351L177.614 232.211Z" fill="#E8E0C5"/>
<path d="M177.614 232.21C177.614 232.21 67.527 220.07 8.32217 244.364L4.80615 36.1119C4.80615 36.1119 11.382 21.7319 53.4852 15.2905L177.614 232.21Z" fill="#D0C9B2"/>
<path d="M177.847 21.9585V232.198C177.847 232.198 99.5493 214.824 11.1704 238.149L7.22046 28.4251C7.22046 28.4251 70.8982 -25.4086 177.847 21.9585Z" fill="#E8E0C5"/>
<path d="M177.848 21.9583V232.198C177.848 232.198 101.387 208.86 13.0084 232.198L9.36279 18.6039C9.36279 18.6039 70.8984 -25.4088 177.848 21.9583Z" fill="white"/>
<path d="M177.614 21.958V232.197C177.614 232.197 253.041 206.633 341.42 229.971V20.0205C341.42 20.0205 284.563 -25.4091 177.614 21.958Z" fill="white"/>
<path opacity="0.1" d="M177.062 32.4176C101.649 -3.74987 36.0973 12.743 15.6123 26.1384L17.6955 225.185C81.8588 207.604 151.89 216.185 177.062 225.185C241.642 206.097 310.388 214.929 335.387 220.162V26.1384C290.806 -6.01055 210.394 17.3478 177.062 32.4176Z" stroke="black" stroke-linejoin="round" stroke-dasharray="2 2"/>
</svg>
