<svg width="68" height="63" viewBox="0 0 68 63" fill="none" xmlns="http://www.w3.org/2000/svg">
    <defs>
        <linearGradient id="paint0_linear_1809_19636" x1="4.94177" y1="30.0162" x2="64.0005" y2="30.0162" gradientUnits="userSpaceOnUse">
            <stop stop-color="#F47B20"/>
            <stop offset="1" stop-color="#FAA819"/>
        </linearGradient>
        <linearGradient id="paint1_linear_1809_19636" x1="5.65521" y1="54.4536" x2="56.3899" y2="-1.06881" gradientUnits="userSpaceOnUse">
            <stop stop-color="#FAA21B"/>
            <stop offset="1" stop-color="#FFF200"/>
        </linearGradient>
    </defs>

<path d="M61.6434 51.0203C61.6434 53.7493 59.27 55.9623 56.3432 55.9623H11.5607C8.6339 55.9623 6.2605 53.7493 6.2605 51.0203V9.26423C6.2605 6.53527 8.6339 4.32227 11.5607 4.32227H56.3432C59.27 4.32227 61.6434 6.53527 61.6434 9.26423V51.0203Z" fill="white"/>
<path d="M58.3487 3.0332H10.5922C7.46988 3.0332 4.94092 5.34409 4.94092 8.1972V51.8356C4.94092 54.6887 7.46988 56.9996 10.5922 56.9996H58.3487C61.471 56.9996 64 54.6887 64 51.8356V8.1972C64 5.34409 61.471 3.0332 58.3487 3.0332ZM60.2955 51.1591C60.2955 52.5844 59.0296 53.7411 57.4699 53.7411H11.3156C9.75584 53.7411 8.48994 52.5844 8.48994 51.1591V8.98729C8.48994 7.56203 9.75584 6.40529 11.3156 6.40529H57.4671C59.0268 6.40529 60.2927 7.56203 60.2927 8.98729V51.1591H60.2955Z" fill="url(#paint0_linear_1809_19636)"/>
<path d="M57.4077 2H9.65131C6.52896 2 4 4.31089 4 7.164V50.8024C4 53.6555 6.52896 55.9664 9.65131 55.9664H57.4077C60.5301 55.9664 63.0591 53.6555 63.0591 50.8024V7.164C63.0591 4.31089 60.5273 2 57.4077 2ZM59.3518 50.1259C59.3518 51.5512 58.0859 52.7079 56.5261 52.7079H10.3747C8.81492 52.7079 7.54903 51.5512 7.54903 50.1259V7.95409C7.54903 6.52883 8.81492 5.37209 10.3747 5.37209H56.5261C58.0859 5.37209 59.3518 6.52883 59.3518 7.95409V50.1259Z" fill="url(#paint1_linear_1809_19636)"/>
<path opacity="0.2" d="M54.3616 8.72656H24.031C22.4712 8.72656 21.2053 9.8833 21.2053 11.3086V15.0964C21.2053 16.5216 22.4712 17.6784 24.031 17.6784H47.3907V41.2572C47.3907 42.6824 48.6566 43.8392 50.2163 43.8392H54.3616C55.9213 43.8392 57.1872 42.6824 57.1872 41.2572V15.0938V13.5394V11.306C57.1872 9.88072 55.9213 8.72656 54.3616 8.72656Z" fill="white"/>
<path opacity="0.7" d="M62.2424 15.8762C62.2424 16.2506 61.909 16.5553 61.4993 16.5553C61.0895 16.5553 60.7561 16.2506 60.7561 15.8762V8.77575C60.7561 8.40136 61.0895 8.09668 61.4993 8.09668C61.909 8.09668 62.2424 8.40136 62.2424 8.77575V15.8762Z" fill="white"/>
<path opacity="0.7" d="M60.759 39.7577C60.759 40.1321 61.0925 40.4368 61.5022 40.4368C61.9119 40.4368 62.2453 40.1321 62.2453 39.7577V18.5853C62.2453 18.2109 61.9119 17.9062 61.5022 17.9062C61.0925 17.9062 60.759 18.2109 60.759 18.5853V39.7577Z" fill="white"/>
<path opacity="0.7" d="M50.516 3.66063C50.516 4.00662 50.208 4.28805 49.8293 4.28805H39.8859C39.5072 4.28805 39.1992 4.00662 39.1992 3.66063C39.1992 3.31464 39.5072 3.0332 39.8859 3.0332H49.8293C50.208 3.0332 50.516 3.31464 50.516 3.66063Z" fill="white"/>


</svg>
