<svg width="335" height="132" viewBox="0 0 335 132" fill="none" xmlns="http://www.w3.org/2000/svg">
<path d="M311.666 1.76655L19.6374 14.7818C14.7284 15.2338 10.1654 17.5031 6.84279 21.1448C3.52023 24.7865 1.6778 29.538 1.67676 34.4677V80.2398C1.6783 85.3763 3.67779 90.3109 7.2523 93.9996C10.8268 97.6884 15.696 99.8421 20.83 100.005L196.27 103.241C196.691 111.55 199.808 126.863 216.751 130.273C216.751 130.273 209.349 114.873 210.144 103.686L310.799 104.378C316.03 104.543 321.113 102.627 324.933 99.05C328.753 95.4729 330.998 90.5268 331.177 85.2964L333.268 22.1521C333.367 19.3431 332.866 16.5453 331.799 13.9451C330.732 11.3449 329.122 9.00219 327.078 7.0731C325.034 5.14401 322.602 3.67289 319.944 2.75785C317.287 1.84281 314.464 1.50486 311.666 1.76655Z" fill="#F5E895"/>
<path d="M216.752 131.935C216.641 131.947 216.529 131.947 216.418 131.935C199.475 128.548 195.468 114.181 194.697 104.903L20.7835 101.722C15.1974 101.573 9.89248 99.2395 6.00702 95.2232C2.12156 91.207 -0.034866 85.8277 0.000426467 80.2397V34.4676C-0.0221088 29.1139 1.96786 23.9471 5.57582 19.9916C9.18379 16.0361 14.1463 13.5806 19.4796 13.1121L311.54 0.0888819C314.57 -0.187708 317.624 0.182994 320.5 1.17641C323.376 2.16982 326.008 3.76326 328.221 5.85105C330.435 7.93885 332.179 10.4733 333.338 13.2864C334.498 16.0995 335.046 19.1269 334.947 22.1679L332.856 85.3123C332.663 90.9897 330.227 96.3591 326.083 100.244C321.938 104.129 316.423 106.213 310.745 106.04L211.759 105.404C211.759 115.851 218.199 129.383 218.263 129.526C218.379 129.781 218.43 130.061 218.411 130.341C218.392 130.62 218.303 130.891 218.153 131.128C218.003 131.364 217.796 131.56 217.552 131.697C217.307 131.834 217.032 131.907 216.752 131.911V131.935ZM311.842 3.43612L19.7897 16.4593C15.2915 16.8524 11.1056 18.9223 8.06267 22.2583C5.01978 25.5942 3.34244 29.9524 3.36357 34.4676V80.2397C3.3429 84.9407 5.16055 89.4636 8.42854 92.843C11.6965 96.2225 16.156 98.1906 20.8551 98.3275L196.295 101.555C196.71 101.577 197.102 101.751 197.396 102.045C197.69 102.338 197.864 102.731 197.885 103.146C198.267 110.699 200.89 123.404 213.739 127.729C211.576 122.506 207.807 112.003 208.404 103.551C208.411 103.333 208.461 103.118 208.552 102.92C208.643 102.721 208.773 102.543 208.933 102.395C209.094 102.247 209.282 102.132 209.488 102.058C209.693 101.983 209.911 101.95 210.129 101.961L310.785 102.653C315.574 102.794 320.225 101.034 323.72 97.756C327.216 94.4783 329.271 89.95 329.437 85.1612L331.528 22.0169C331.607 19.4601 331.142 16.9157 330.165 14.5516C329.189 12.1874 327.722 10.0572 325.862 8.30144C324.001 6.54565 321.79 5.2042 319.374 4.36555C316.957 3.52691 314.39 3.21014 311.842 3.43612Z" fill="#440005"/>
<path d="M63.4227 15.5371C54.5418 17.0875 45.5893 17.1273 36.613 17.7156C30.165 18.137 22.7709 18.4471 16.9112 21.5319C5.00904 27.8289 9.2865 41.5597 7.15572 52.3488C6.59122 55.1633 11.0039 55.855 11.5683 53.0325C13.9058 41.2178 8.88102 27.2962 24.3451 23.7422C37.2411 20.7687 50.8368 22.2634 63.8838 19.9816C66.6984 19.4886 66.2611 15.0442 63.4227 15.5371Z" fill="white"/>
<path d="M10.0014 59.2737C9.41942 59.3494 8.88867 59.6456 8.51879 60.1013C8.1489 60.557 7.96812 61.1374 8.01378 61.7225V63.1934C8.07404 63.7833 8.36554 64.3253 8.82449 64.7008C9.28343 65.0763 9.87243 65.2547 10.4626 65.197C11.0463 65.125 11.5794 64.8298 11.95 64.3732C12.3206 63.9166 12.4999 63.3341 12.4503 62.7481V61.2693C12.3861 60.6817 12.0932 60.1429 11.6349 59.7695C11.1767 59.3961 10.5899 59.218 10.0014 59.2737Z" fill="white"/>
<path d="M318.473 79.3494C317.28 84.9148 318.846 92.619 311.317 93.4459C306.745 93.9468 302.134 92.7383 297.554 92.7383C294.684 92.7383 295.169 97.1748 298.008 97.1748C303.987 97.1748 310.649 99.4328 316.35 96.7216C322.822 93.6367 321.629 85.8689 322.885 80.0252C323.49 77.2265 319.077 76.5428 318.473 79.3494Z" fill="white"/>
</svg>
