<svg width="353" height="220" viewBox="0 0 353 220" fill="none" xmlns="http://www.w3.org/2000/svg">

    <defs>
        <linearGradient id="paint0_linear_1762_5983" x1="39.7421" y1="250.535" x2="316.576" y2="-25.5416" gradientUnits="userSpaceOnUse">
            <stop stop-color="#240000"/>
            <stop offset="1" stop-color="#983725"/>
        </linearGradient>
        <linearGradient id="paint1_linear_1762_5983" x1="37.1777" y1="247.316" x2="314.011" y2="-28.7605" gradientUnits="userSpaceOnUse">
            <stop stop-color="#581839"/>
            <stop offset="1" stop-color="#F15D45"/>
        </linearGradient>
        <linearGradient id="paint2_linear_1762_5983" x1="38.9572" y1="245.571" x2="312.251" y2="-26.9761" gradientUnits="userSpaceOnUse">
            <stop stop-color="#EF426C"/>
            <stop offset="1" stop-color="#F9AE8F"/>
        </linearGradient>
        <linearGradient id="paint3_linear_1762_5983" x1="88.4647" y1="167.077" x2="291.553" y2="-35.4555" gradientUnits="userSpaceOnUse">
            <stop stop-color="#F26B77"/>
            <stop offset="1" stop-color="#FFF8AC"/>
        </linearGradient>
    </defs><path d="M353 208.153C353 214.957 347.499 220.477 340.709 220.477H14.8549C8.06944 220.477 2.56421 214.961 2.56421 208.153V16.0866C2.56421 9.28253 8.0656 3.76221 14.8549 3.76221H340.709C347.495 3.76221 353 9.27867 353 16.0866V208.153Z" fill="url(#paint0_linear_1762_5983)"/>
<path d="M350.432 204.93C350.432 211.734 344.931 217.255 338.141 217.255H12.2868C5.50139 217.255 0 211.738 0 204.93V12.8678C0 6.06378 5.50139 0.543457 12.2868 0.543457H338.141C344.927 0.543457 350.432 6.05992 350.432 12.8678V204.93Z" fill="url(#paint1_linear_1762_5983)"/>
<path d="M348.448 203.512C348.448 210.215 343.008 215.647 336.3 215.647H14.1628C7.45428 215.647 2.0144 210.212 2.0144 203.512V14.3366C2.0144 7.63278 7.45428 2.19727 14.1628 2.19727H336.3C343.008 2.19727 348.448 7.63278 348.448 14.3366V203.512Z" fill="url(#paint2_linear_1762_5983)"/>
<path d="M345.323 201.314C345.323 207.836 339.971 213.126 333.37 213.126H16.5156C9.91475 213.126 4.56714 207.836 4.56714 201.314V17.2042C4.56714 10.6816 9.91859 5.39258 16.5156 5.39258H333.374C339.975 5.39258 345.326 10.6816 345.326 17.2042V201.314H345.323Z" fill="white"/>
<path d="M342.028 146.026V20.0646C342.028 13.542 336.773 8.25293 330.291 8.25293H19.1377C12.656 8.25293 7.40063 13.542 7.40063 20.0646V85.7919C47.6711 83.5791 197.343 80.6609 342.028 146.026Z" fill="url(#paint3_linear_1762_5983)" fill-opacity="0.1"/>
<path opacity="0.4" d="M337.284 23.6305V106.99C337.284 106.99 334.827 111.875 332.521 106.99L329.187 42.9979C329.187 42.9979 328.161 32.7167 317.397 28.349C306.632 23.9813 282.543 23.6305 282.543 23.6305C282.543 23.6305 255.121 21.1556 289.463 18.8427C323.805 16.5297 248.969 17.5589 248.969 17.5589C248.969 17.5589 227.698 14.6446 266.911 14.6446H326.885C326.885 14.6407 336.665 14.7988 337.284 23.6305Z" fill="white"/>
<path opacity="0.4" d="M337.03 162.229V189.395C337.03 189.395 337.857 203.015 326.497 203.015H321.291C321.291 203.015 317.447 198.647 321.291 195.563C321.291 195.563 331.398 194.279 332.24 188.624C333.082 182.969 335.389 162.229 335.389 162.229C335.389 162.229 337.03 144.057 337.03 162.229Z" fill="white"/>

</svg>
