<svg width="206" height="38" viewBox="0 0 206 38" fill="none" xmlns="http://www.w3.org/2000/svg">
    <defs>
        <linearGradient id="paint0_linear_1762_453" x1="2.26894" y1="19.1331" x2="205.355" y2="19.1331" gradientUnits="userSpaceOnUse">
            <stop stop-color="#50EF42"/>
            <stop offset="1" stop-color="#9EF98F"/>
        </linearGradient>
        <linearGradient id="paint1_linear_1762_453" x1="0.510487" y1="17.8742" x2="203.597" y2="17.8742" gradientUnits="userSpaceOnUse">
            <stop stop-color="#ADADAD"/>
            <stop offset="1" stop-color="#DDDDDD"/>
        </linearGradient>
        <linearGradient id="paint2_linear_1762_453" x1="2.26894" y1="17.5328" x2="202.174" y2="17.5328" gradientUnits="userSpaceOnUse">
            <stop stop-color="#E6E6E6"/>
            <stop offset="1" stop-color="white"/>
        </linearGradient>
    </defs>
    <path d="M205.354 29.6179C205.354 33.7003 202.055 37.0079 197.984 37.0079C197.984 37.0079 136.246 35.9554 101.923 35.9554C67.6002 35.9554 9.63761 37.0079 9.63761 37.0079C5.56635 37.0079 2.26782 33.7003 2.26782 29.6179V8.64682C2.26782 4.5644 5.56635 1.25684 9.63761 1.25684C9.63761 1.25684 72.9055 2.07024 104.03 2.07024C135.155 2.07024 197.988 1.25684 197.988 1.25684C202.059 1.25684 205.358 4.5644 205.358 8.64682V29.6179H205.354Z" fill="url(#paint0_linear_1762_453)"/>
<path d="M203.597 28.361C203.597 32.4435 200.299 35.751 196.227 35.751C196.227 35.751 134.49 34.6986 100.166 34.6986C65.8433 34.6986 7.88077 35.751 7.88077 35.751C3.80951 35.751 0.510986 32.4435 0.510986 28.361V7.38998C0.510986 3.30757 3.80951 0 7.88077 0C7.88077 0 71.1487 0.813399 102.273 0.813399C133.398 0.813399 196.231 0 196.231 0C200.303 0 203.601 3.30757 203.601 7.38998V28.361H203.597Z" fill="url(#paint1_linear_1762_453)"/>
<path d="M202.175 27.0775C202.175 30.7937 198.926 33.8044 194.92 33.8044C194.92 33.8044 134.151 32.8445 100.362 32.8445C66.5776 32.8445 9.52228 33.8044 9.52228 33.8044C5.51638 33.8044 2.26782 30.7937 2.26782 27.0775V7.98767C2.26782 4.27148 5.51638 1.26074 9.52228 1.26074C9.52228 1.26074 71.7983 2.0009 102.435 2.0009C133.071 2.0009 194.92 1.26074 194.92 1.26074C198.926 1.26074 202.175 4.27148 202.175 7.98767V27.0775Z" fill="url(#paint2_linear_1762_453)"/>
<path opacity="0.6" d="M200.452 18.126V9.58728C200.452 5.87109 197.258 2.86035 193.317 2.86035C193.317 2.86035 132.494 3.60051 102.366 3.60051C72.2367 3.60051 10.991 2.86035 10.991 2.86035C7.05044 2.86035 3.85571 5.87109 3.85571 9.58728V18.6812C3.85571 18.6812 4.7976 22.6325 7.93082 22.6325C11.064 22.6325 191.976 22.6325 196.212 22.6325C200.452 22.6287 200.452 18.126 200.452 18.126Z" fill="white"/>

</svg>
