<svg width="206" height="38" viewBox="0 0 206 38" fill="none" xmlns="http://www.w3.org/2000/svg">
    <defs>
        <linearGradient id="paint0_linear_1762_5993" x1="2.26894" y1="19.6067" x2="205.355" y2="19.6067" gradientUnits="userSpaceOnUse">
            <stop stop-color="#EF426C"/>
            <stop offset="1" stop-color="#F9AE8F"/>
        </linearGradient>
        <linearGradient id="paint1_linear_1762_5993" x1="0.510487" y1="18.3479" x2="203.597" y2="18.3479" gradientUnits="userSpaceOnUse">
            <stop stop-color="#ADADAD"/>
            <stop offset="1" stop-color="#DDDDDD"/>
        </linearGradient>
        <linearGradient id="paint2_linear_1762_5993" x1="2.26894" y1="18.0064" x2="202.174" y2="18.0064" gradientUnits="userSpaceOnUse">
            <stop stop-color="#E6E6E6"/>
            <stop offset="1" stop-color="white"/>
        </linearGradient>
    </defs>
    <path d="M205.354 30.0915C205.354 34.1739 202.055 37.4815 197.984 37.4815C197.984 37.4815 136.246 36.4291 101.923 36.4291C67.6002 36.4291 9.63761 37.4815 9.63761 37.4815C5.56635 37.4815 2.26782 34.1739 2.26782 30.0915V9.12045C2.26782 5.03804 5.56635 1.73047 9.63761 1.73047C9.63761 1.73047 72.9055 2.54387 104.03 2.54387C135.155 2.54387 197.988 1.73047 197.988 1.73047C202.059 1.73047 205.358 5.03804 205.358 9.12045V30.0915H205.354Z" fill="url(#paint0_linear_1762_5993)"/>
<path d="M203.597 28.8347C203.597 32.9171 200.299 36.2247 196.227 36.2247C196.227 36.2247 134.49 35.1722 100.166 35.1722C65.8433 35.1722 7.88077 36.2247 7.88077 36.2247C3.80951 36.2247 0.510986 32.9171 0.510986 28.8347V7.86362C0.510986 3.7812 3.80951 0.473633 7.88077 0.473633C7.88077 0.473633 71.1487 1.28703 102.273 1.28703C133.398 1.28703 196.231 0.473633 196.231 0.473633C200.303 0.473633 203.601 3.7812 203.601 7.86362V28.8347H203.597Z" fill="url(#paint1_linear_1762_5993)"/>
<path d="M202.175 27.5511C202.175 31.2673 198.926 34.2781 194.92 34.2781C194.92 34.2781 134.151 33.3182 100.362 33.3182C66.5776 33.3182 9.52228 34.2781 9.52228 34.2781C5.51638 34.2781 2.26782 31.2673 2.26782 27.5511V8.4613C2.26782 4.74511 5.51638 1.73438 9.52228 1.73438C9.52228 1.73438 71.7983 2.47453 102.435 2.47453C133.071 2.47453 194.92 1.73438 194.92 1.73438C198.926 1.73438 202.175 4.74511 202.175 8.4613V27.5511Z" fill="url(#paint2_linear_1762_5993)"/>
<path opacity="0.6" d="M200.452 18.5997V10.0609C200.452 6.34472 197.258 3.33398 193.317 3.33398C193.317 3.33398 132.494 4.07414 102.366 4.07414C72.2367 4.07414 10.991 3.33398 10.991 3.33398C7.05044 3.33398 3.85571 6.34472 3.85571 10.0609V19.1548C3.85571 19.1548 4.7976 23.1061 7.93082 23.1061C11.064 23.1061 191.976 23.1061 196.212 23.1061C200.452 23.1023 200.452 18.5997 200.452 18.5997Z" fill="white"/>

</svg>
