<svg width="353" height="220" viewBox="0 0 353 220" fill="none" xmlns="http://www.w3.org/2000/svg">
    <defs>
        <linearGradient id="paint0_linear_1762_442" x1="39.7421" y1="250.062" x2="316.576" y2="-26.0152" gradientUnits="userSpaceOnUse">
            <stop stop-color="#240000"/>
            <stop offset="1" stop-color="#259837"/>
        </linearGradient>
        <linearGradient id="paint1_linear_1762_442" x1="37.1777" y1="246.843" x2="314.011" y2="-29.2341" gradientUnits="userSpaceOnUse">
            <stop stop-color="#581839"/>
            <stop offset="1" stop-color="#5DF145"/>
        </linearGradient>
        <linearGradient id="paint2_linear_1762_442" x1="38.9572" y1="245.097" x2="312.251" y2="-27.4498" gradientUnits="userSpaceOnUse">
            <stop stop-color="#42EF49"/>
            <stop offset="1" stop-color="#ABF98F"/>
        </linearGradient>
        <linearGradient id="paint3_linear_1762_442" x1="88.4647" y1="166.604" x2="291.553" y2="-35.9287" gradientUnits="userSpaceOnUse">
            <stop stop-color="#F26B77"/>
            <stop offset="1" stop-color="#FFF8AC"/>
        </linearGradient>
    </defs>
    <path d="M353 207.679C353 214.483 347.499 220.004 340.709 220.004H14.8549C8.06944 220.004 2.56421 214.487 2.56421 207.679V15.6129C2.56421 8.80889 8.0656 3.28857 14.8549 3.28857H340.709C347.495 3.28857 353 8.80504 353 15.6129V207.679Z" fill="url(#paint0_linear_1762_442)"/>
<path d="M350.432 204.457C350.432 211.261 344.931 216.781 338.141 216.781H12.2868C5.50139 216.781 0 211.265 0 204.457V12.3942C0 5.59015 5.50139 0.0698242 12.2868 0.0698242H338.141C344.927 0.0698242 350.432 5.58629 350.432 12.3942V204.457Z" fill="url(#paint1_linear_1762_442)"/>
<path d="M348.448 203.038C348.448 209.742 343.008 215.174 336.3 215.174H14.1628C7.45428 215.174 2.0144 209.738 2.0144 203.038V13.8629C2.0144 7.15914 7.45428 1.72363 14.1628 1.72363H336.3C343.008 1.72363 348.448 7.15914 348.448 13.8629V203.038Z" fill="url(#paint2_linear_1762_442)"/>
<path d="M345.323 200.841C345.323 207.363 339.971 212.652 333.37 212.652H16.5156C9.91475 212.652 4.56714 207.363 4.56714 200.841V16.7311C4.56714 10.2085 9.91859 4.91943 16.5156 4.91943H333.374C339.975 4.91943 345.326 10.2085 345.326 16.7311V200.841H345.323Z" fill="white"/>
<path d="M342.028 145.553V19.5914C342.028 13.0688 336.773 7.77979 330.291 7.77979H19.1377C12.656 7.77979 7.40063 13.0688 7.40063 19.5914V85.3187C47.6711 83.106 197.343 80.1878 342.028 145.553Z" fill="url(#paint3_linear_1762_442)" fill-opacity="0.1"/>
<path opacity="0.4" d="M337.284 23.1574V106.517C337.284 106.517 334.827 111.402 332.521 106.517L329.187 42.5248C329.187 42.5248 328.161 32.2436 317.397 27.8759C306.632 23.5082 282.543 23.1574 282.543 23.1574C282.543 23.1574 255.121 20.6825 289.463 18.3695C323.805 16.0565 248.969 17.0858 248.969 17.0858C248.969 17.0858 227.698 14.1714 266.911 14.1714H326.885C326.885 14.1676 336.665 14.3256 337.284 23.1574Z" fill="white"/>
<path opacity="0.4" d="M337.03 161.755V188.921C337.03 188.921 337.857 202.541 326.497 202.541H321.291C321.291 202.541 317.447 198.173 321.291 195.089C321.291 195.089 331.398 193.806 332.24 188.15C333.082 182.495 335.389 161.755 335.389 161.755C335.389 161.755 337.03 143.583 337.03 161.755Z" fill="white"/>

</svg>
