<svg width="306" height="99" viewBox="0 0 306 99" fill="none" xmlns="http://www.w3.org/2000/svg">
    <defs>
        <linearGradient id="paint0_linear_1709_36336" x1="152.937" y1="-1.93705" x2="152.937" y2="106.241" gradientUnits="userSpaceOnUse">
            <stop stop-color="#FFB100"/>
            <stop offset="0.8121" stop-color="#FF5900"/>
            <stop offset="1" stop-color="#FFA12D"/>
        </linearGradient>
        <linearGradient id="paint1_linear_1709_36336" x1="152.937" y1="89.9587" x2="152.937" y2="42.6198" gradientUnits="userSpaceOnUse">
            <stop/>
            <stop offset="1" stop-color="white"/>
        </linearGradient>
        <linearGradient id="paint2_linear_1709_36336" x1="152.937" y1="89.9587" x2="152.937" y2="42.6198" gradientUnits="userSpaceOnUse">
            <stop/>
            <stop offset="1"/>
        </linearGradient>
    </defs>
    <path d="M152.937 98.7381C105.599 98.7381 57.8504 95.5859 11.0366 89.3541C5.0952 88.5319 0.274353 83.5658 0.274353 78.2692V20.7969C0.274353 15.5004 5.0952 10.5263 11.0205 9.71203C57.8504 3.48835 105.599 0.328125 152.937 0.328125C200.275 0.328125 248.024 3.48028 294.838 9.70396C300.779 10.5263 305.6 15.5004 305.6 20.7889V78.2612C305.6 83.5577 300.779 88.5318 294.854 89.3461C248.024 95.5859 200.275 98.7381 152.937 98.7381Z" fill="white"/>
<path d="M302.375 78.2705C302.375 82.1804 298.772 85.9211 294.362 86.5257C200.597 98.9892 105.269 98.9892 11.5122 86.5257C7.10251 85.9211 3.49896 82.1804 3.49896 78.2705C3.49896 59.1157 3.49896 39.9529 3.49896 20.7982C3.49896 16.8882 7.10251 13.1556 11.5122 12.5429C105.277 0.079442 200.605 0.079442 294.362 12.5429C298.772 13.1556 302.375 16.8882 302.375 20.7982C302.375 39.9529 302.375 59.1157 302.375 78.2705Z" fill="url(#paint0_linear_1709_36336)"/>
<mask id="mask0_1709_36336" style="mask-type:alpha" maskUnits="userSpaceOnUse" x="3" y="46" width="300" height="50">
<path d="M3.49896 63.9524C3.49896 68.7249 3.49896 73.4975 3.49896 78.2701C3.49896 82.18 7.10251 85.9207 11.5122 86.5253C105.277 98.9888 200.605 98.9888 294.362 86.5253C298.772 85.9207 302.375 82.18 302.375 78.2701C302.375 73.4975 302.375 68.7249 302.375 63.9524C226.644 101.698 105.785 9.24527 3.49896 63.9524Z" fill="url(#paint1_linear_1709_36336)"/>
</mask>
<g mask="url(#mask0_1709_36336)">
<path opacity="0.1" d="M3.49896 63.9524C3.49896 68.7249 3.49896 73.4975 3.49896 78.2701C3.49896 82.18 7.10251 85.9207 11.5122 86.5253C105.277 98.9888 200.605 98.9888 294.362 86.5253C298.772 85.9207 302.375 82.18 302.375 78.2701C302.375 73.4975 302.375 68.7249 302.375 63.9524C226.644 101.698 105.785 9.24527 3.49896 63.9524Z" fill="url(#paint2_linear_1709_36336)"/>
</g>
</svg>
