<svg width="350" height="472" viewBox="0 0 350 472" fill="none" xmlns="http://www.w3.org/2000/svg">
    <defs>
        <linearGradient id="paint0_linear_1709_36322" x1="174.937" y1="472" x2="174.937" y2="0.995955" gradientUnits="userSpaceOnUse">
            <stop stop-color="#355E8F"/>
            <stop offset="0.19" stop-color="#BBD5F2"/>
            <stop offset="0.5257" stop-color="#BBD5F2"/>
            <stop offset="0.9104" stop-color="#8AB4E3"/>
            <stop offset="1" stop-color="#CFE6FF"/>
        </linearGradient>
        <linearGradient id="paint1_linear_1709_36322" x1="175.325" y1="71.8778" x2="175.325" y2="-3.10687" gradientUnits="userSpaceOnUse">
            <stop stop-color="#FFAB01"/>
            <stop offset="0.2857" stop-color="#FF7F01"/>
            <stop offset="0.6848" stop-color="#E66101"/>
            <stop offset="1" stop-color="#E6660E"/>
        </linearGradient>
        <linearGradient id="paint2_linear_1709_36322" x1="175.325" y1="32.5359" x2="175.325" y2="-4.56759" gradientUnits="userSpaceOnUse">
            <stop/>
            <stop offset="1" stop-color="white"/>
        </linearGradient>
        <linearGradient id="paint3_linear_1709_36322" x1="175.325" y1="19.4581" x2="175.325" y2="-4.55536" gradientUnits="userSpaceOnUse">
            <stop stop-color="white"/>
            <stop offset="1" stop-color="white"/>
        </linearGradient>
    </defs>
    <path d="M174.937 472C125.874 472 76.3757 468.493 27.8126 461.584C12.2133 459.335 0 445.235 0 429.482V42.5177C0 26.7651 12.2053 12.665 27.7884 10.4158C76.3757 3.50687 125.882 0 174.937 0C224 0 273.498 3.50687 322.062 10.4158C337.661 12.665 349.874 26.7651 349.874 42.5177V429.482C349.874 445.235 337.669 459.335 322.086 461.584C273.498 468.493 223.992 472 174.937 472Z" fill="url(#paint0_linear_1709_36322)"/>
<path d="M174.937 463.939C126.261 463.939 77.1416 460.464 28.9493 453.604C17.4292 451.943 8.06165 441.124 8.06165 429.483V42.5185C8.06165 30.8773 17.4292 20.0584 28.9332 18.3977C77.1336 11.5371 126.253 8.0625 174.937 8.0625C223.613 8.0625 272.733 11.5371 320.925 18.3977C332.445 20.0584 341.813 30.8773 341.813 42.5185V429.483C341.813 441.124 332.445 451.943 320.941 453.604C272.741 460.464 223.621 463.939 174.937 463.939Z" fill="white"/>
<path d="M174.937 460.712C126.406 460.712 77.4479 457.246 29.4007 450.409C19.4124 448.966 11.2863 439.582 11.2863 429.481V42.5164C11.2863 32.415 19.4124 23.0311 29.4007 21.5881C77.4479 14.7517 126.406 11.2852 174.937 11.2852C223.468 11.2852 272.426 14.7517 320.473 21.5881C330.462 23.0311 338.588 32.415 338.588 42.5164V429.481C338.588 439.582 330.462 448.966 320.473 450.409C272.426 457.246 223.468 460.712 174.937 460.712Z" fill="#ABD3FF"/>
<path d="M336.169 429.482C336.169 438.326 328.962 446.743 320.135 448.016C223.823 461.721 126.06 461.721 29.7474 448.016C20.9119 446.743 13.7048 438.326 13.7048 429.482C13.7048 305.871 13.7048 166.129 13.7048 42.5178C13.7048 33.6741 20.9119 25.2576 29.7393 23.9838C126.051 10.2788 223.815 10.2788 320.127 23.9838C328.962 25.2576 336.169 33.6741 336.169 42.5178C336.169 166.129 336.169 305.871 336.169 429.482Z" fill="#DBECFF"/>
<mask id="mask0_1709_36322" style="mask-type:alpha" maskUnits="userSpaceOnUse" x="13" y="13" width="324" height="446">
<path d="M336.169 429.484C336.169 438.328 328.962 446.745 320.135 448.018C223.823 461.723 126.06 461.723 29.7474 448.018C20.9119 446.745 13.7048 438.328 13.7048 429.484C13.7048 305.873 13.7048 166.131 13.7048 42.5198C13.7048 33.676 20.9119 25.2595 29.7394 23.9858C126.052 10.2808 223.815 10.2808 320.127 23.9858C328.962 25.2595 336.169 33.676 336.169 42.5198C336.169 166.131 336.169 305.873 336.169 429.484Z" fill="#DBECFF"/>
</mask>
<g mask="url(#mask0_1709_36322)">
<path d="M105.108 78.3905C100.207 78.3905 95.4502 77.3989 90.9599 75.448C86.8324 73.6502 82.995 70.9495 79.2383 67.1847C75.4252 63.3634 72.1038 60.6627 64.0744 60.6627H2V-6H348.649V60.6546H286.575C278.546 60.6546 275.232 63.3553 271.411 67.1766C267.654 70.9415 263.817 73.6421 259.69 75.4399C255.199 77.3909 250.435 78.3825 245.541 78.3825H105.108V78.3905Z" fill="#ABD3FF"/>
<path d="M105.108 76.2297C100.207 76.2297 95.4502 75.2381 90.9599 73.2872C86.8324 71.4894 82.995 68.7887 79.2383 65.0239C75.4252 61.2026 72.1038 58.5019 64.0744 58.5019H2V-5.99219H348.649V58.5019H286.575C278.546 58.5019 275.232 61.2026 271.411 65.0239C267.654 68.7887 263.817 71.4894 259.69 73.2872C255.199 75.2381 250.435 76.2297 245.541 76.2297H105.108Z" fill="white"/>
<path d="M5.22461 -6V55.2694H64.0744C72.9422 55.2694 77.1262 58.3409 81.5197 62.7426C84.559 65.7819 88.0496 68.5068 92.2497 70.3287C96.4418 72.1507 100.811 73.0053 105.116 73.0053H245.549C249.846 73.0053 254.216 72.1507 258.416 70.3287C262.608 68.5068 266.107 65.7819 269.146 62.7426C273.539 58.3409 277.723 55.2694 286.591 55.2694H345.441V-6H5.22461Z" fill="url(#paint1_linear_1709_36322)"/>
<mask id="mask1_1709_36322" style="mask-type:alpha" maskUnits="userSpaceOnUse" x="5" y="-6" width="341" height="40">
<path d="M179.355 13.0903C254.401 13.0903 297.845 20.7812 345.425 33.0995V-6H5.22461V33.0915C52.8043 20.7812 104.31 13.0903 179.355 13.0903Z" fill="url(#paint2_linear_1709_36322)"/>
</mask>
<g mask="url(#mask1_1709_36322)">
<path opacity="0.5" d="M179.366 6.87286C254.604 6.87286 298.159 11.8504 345.861 19.8229V-5.48242H4.7887V19.8177C52.4903 11.8504 104.128 6.87286 179.366 6.87286Z" fill="url(#paint3_linear_1709_36322)"/>
</g>
</g>
</svg>
