<svg width="335" height="132" viewBox="0 0 335 132" fill="none" xmlns="http://www.w3.org/2000/svg">
<path d="M311.666 1.76753L19.6375 14.7828C14.7286 15.2347 10.1655 17.504 6.84292 21.1458C3.52035 24.7875 1.67792 29.539 1.67688 34.4687V80.2408C1.67842 85.3773 3.67791 90.3119 7.25242 94.0006C10.8269 97.6894 15.6961 99.8431 20.8301 100.006L196.27 103.242C196.691 111.551 199.808 126.864 216.751 130.274C216.751 130.274 209.349 114.874 210.144 103.687L310.799 104.379C316.03 104.544 321.113 102.628 324.933 99.051C328.753 95.4739 330.999 90.5278 331.177 85.2974L333.268 22.1531C333.367 19.3441 332.867 16.5463 331.799 13.9461C330.732 11.3459 329.122 9.00317 327.078 7.07408C325.034 5.14498 322.602 3.67387 319.944 2.75883C317.287 1.84378 314.465 1.50584 311.666 1.76753Z" fill="white"/>
<path d="M216.752 131.935C216.641 131.947 216.529 131.947 216.418 131.935C199.475 128.548 195.468 114.181 194.697 104.903L20.7835 101.722C15.1974 101.573 9.89248 99.2395 6.00702 95.2232C2.12156 91.207 -0.034866 85.8277 0.000426467 80.2397V34.4676C-0.0221088 29.1139 1.96786 23.9471 5.57582 19.9916C9.18379 16.0361 14.1463 13.5806 19.4796 13.1121L311.54 0.0888819C314.57 -0.187708 317.624 0.182994 320.5 1.17641C323.376 2.16982 326.008 3.76326 328.221 5.85105C330.435 7.93885 332.179 10.4733 333.338 13.2864C334.498 16.0995 335.046 19.1269 334.947 22.1679L332.856 85.3123C332.663 90.9897 330.227 96.3591 326.083 100.244C321.938 104.129 316.423 106.213 310.745 106.04L211.759 105.404C211.759 115.851 218.199 129.383 218.263 129.526C218.379 129.781 218.43 130.061 218.411 130.341C218.392 130.62 218.303 130.891 218.153 131.128C218.003 131.364 217.796 131.56 217.552 131.697C217.307 131.834 217.032 131.907 216.752 131.911V131.935ZM311.842 3.43612L19.7897 16.4593C15.2915 16.8524 11.1056 18.9223 8.06267 22.2583C5.01978 25.5942 3.34244 29.9524 3.36357 34.4676V80.2397C3.3429 84.9407 5.16055 89.4636 8.42854 92.843C11.6965 96.2225 16.156 98.1906 20.8551 98.3275L196.295 101.555C196.71 101.577 197.102 101.751 197.396 102.045C197.69 102.338 197.864 102.731 197.885 103.146C198.267 110.699 200.89 123.404 213.739 127.729C211.576 122.506 207.807 112.003 208.404 103.551C208.411 103.333 208.461 103.118 208.552 102.92C208.643 102.721 208.773 102.543 208.933 102.395C209.094 102.247 209.282 102.132 209.488 102.058C209.693 101.983 209.911 101.95 210.129 101.961L310.785 102.653C315.574 102.794 320.225 101.034 323.72 97.756C327.216 94.4783 329.271 89.95 329.437 85.1612L331.528 22.0169C331.607 19.4601 331.142 16.9157 330.165 14.5516C329.189 12.1874 327.722 10.0572 325.862 8.30144C324.001 6.54565 321.79 5.2042 319.374 4.36555C316.957 3.52691 314.39 3.21014 311.842 3.43612Z" fill="#EC1C24"/>
<path opacity="0.4" d="M63.4228 15.5381C54.5419 17.0885 45.5894 17.1282 36.6131 17.7166C30.1651 18.138 22.771 18.448 16.9113 21.5329C5.00913 27.8299 9.28659 41.5607 7.15581 52.3498C6.59131 55.1643 11.0039 55.856 11.5684 53.0335C13.9059 41.2188 8.88111 27.2972 24.3452 23.7432C37.2412 20.7696 50.8369 22.2644 63.8839 19.9825C66.6985 19.4896 66.2612 15.0452 63.4228 15.5381Z" fill="#FF7277"/>
<path d="M10.0014 59.2737C9.41939 59.3494 8.88864 59.6456 8.51876 60.1013C8.14887 60.557 7.96809 61.1374 8.01375 61.7225V63.1934C8.07401 63.7833 8.36551 64.3253 8.82445 64.7008C9.2834 65.0763 9.8724 65.2547 10.4626 65.197C11.0462 65.125 11.5793 64.8298 11.95 64.3732C12.3206 63.9166 12.4999 63.3341 12.4502 62.7481V61.2693C12.386 60.6817 12.0931 60.1429 11.6349 59.7695C11.1767 59.3961 10.5899 59.218 10.0014 59.2737Z" fill="white"/>
<path opacity="0.4" d="M320.847 78.7947C319.654 84.3602 321.22 92.0644 313.691 92.8912C309.119 93.3921 304.508 92.1836 299.929 92.1836C297.058 92.1836 297.543 96.6201 300.382 96.6201C306.361 96.6201 313.023 98.8781 318.724 96.1669C325.196 93.082 324.003 85.3142 325.259 79.4705C325.864 76.6718 321.451 75.9881 320.847 78.7947Z" fill="#FF7277"/>
</svg>
