<svg width="72" height="113" viewBox="0 0 72 113" fill="none" xmlns="http://www.w3.org/2000/svg">
<defs>
        <radialGradient id="paint0_radial_1499_14438" cx="0" cy="0" r="1" gradientUnits="userSpaceOnUse" gradientTransform="translate(27.3591 95.7129) scale(1.78942 1.86183)">
            <stop stop-color="#8BCCF2"/>
            <stop offset="0.1376" stop-color="#84C5ED"/>
            <stop offset="0.3417" stop-color="#70B3E0"/>
            <stop offset="0.587" stop-color="#4F94CA"/>
            <stop offset="0.8622" stop-color="#216AAD"/>
            <stop offset="1" stop-color="#08529C"/>
        </radialGradient>
        <radialGradient id="paint1_radial_1499_14438" cx="0" cy="0" r="1" gradientUnits="userSpaceOnUse" gradientTransform="translate(45.9691 83.1963) scale(11.317 11.7749)">
            <stop stop-color="#8BCCF2"/>
            <stop offset="0.1376" stop-color="#84C5ED"/>
            <stop offset="0.3417" stop-color="#70B3E0"/>
            <stop offset="0.587" stop-color="#4F94CA"/>
            <stop offset="0.8622" stop-color="#216AAD"/>
            <stop offset="1" stop-color="#08529C"/>
        </radialGradient>
        <linearGradient id="paint2_linear_1499_14438" x1="1.97175" y1="61.2821" x2="7.76898" y2="59.1377" gradientUnits="userSpaceOnUse">
            <stop stop-color="#6DCCF2"/>
            <stop offset="1" stop-color="#08529C"/>
        </linearGradient>
        <linearGradient id="paint3_linear_1499_14438" x1="69.6874" y1="34.1519" x2="63.8902" y2="36.2963" gradientUnits="userSpaceOnUse">
            <stop stop-color="#6DCCF2"/>
            <stop offset="1" stop-color="#08529C"/>
        </linearGradient>
        <radialGradient id="paint4_radial_1499_14438" cx="0" cy="0" r="1" gradientUnits="userSpaceOnUse" gradientTransform="translate(36.3451 49.0891) rotate(-21.8234) scale(22.9394 23.616)">
            <stop stop-color="#8BCCF2"/>
            <stop offset="0.1376" stop-color="#84C5ED"/>
            <stop offset="0.3417" stop-color="#70B3E0"/>
            <stop offset="0.587" stop-color="#4F94CA"/>
            <stop offset="0.8622" stop-color="#216AAD"/>
            <stop offset="1" stop-color="#08529C"/>
        </radialGradient>
        <linearGradient id="paint5_linear_1499_14438" x1="11.1534" y1="30.7731" x2="18.4167" y2="28.0864" gradientUnits="userSpaceOnUse">
            <stop stop-color="#6DCCF2"/>
            <stop offset="1" stop-color="#08529C"/>
        </linearGradient>
        <linearGradient id="paint6_linear_1499_14438" x1="36.0298" y1="20.8574" x2="43.2931" y2="18.1707" gradientUnits="userSpaceOnUse">
            <stop stop-color="#6DCCF2"/>
            <stop offset="1" stop-color="#08529C"/>
        </linearGradient>
        <linearGradient id="paint7_linear_1499_14438" x1="39.7188" y1="5.64077" x2="39.4271" y2="19.0419" gradientUnits="userSpaceOnUse">
            <stop stop-color="#6DCCF2"/>
            <stop offset="1" stop-color="#08529C"/>
        </linearGradient>
        <linearGradient id="paint8_linear_1499_14438" x1="6.06362" y1="19.1333" x2="15.3105" y2="29.2584" gradientUnits="userSpaceOnUse">
            <stop stop-color="#6DCCF2"/>
            <stop offset="1" stop-color="#08529C"/>
        </linearGradient>
        <linearGradient id="paint9_linear_1499_14438" x1="27.0181" y1="31.4798" x2="32.5489" y2="29.4339" gradientUnits="userSpaceOnUse">
            <stop stop-color="#6DCCF2"/>
            <stop offset="1" stop-color="#08529C"/>
        </linearGradient>
        <radialGradient id="paint10_radial_1499_14438" cx="0" cy="0" r="1" gradientUnits="userSpaceOnUse" gradientTransform="translate(22.4336 52.5369) rotate(-21.8233) scale(6.80226 7.00291)">
            <stop stop-color="#08529C"/>
            <stop offset="0.1451" stop-color="#0E59A1"/>
            <stop offset="0.3544" stop-color="#1E6CAE"/>
            <stop offset="0.6027" stop-color="#378BC4"/>
            <stop offset="0.8786" stop-color="#5BB7E3"/>
            <stop offset="1" stop-color="#6DCCF2"/>
        </radialGradient>
        <radialGradient id="paint11_radial_1499_14438" cx="0" cy="0" r="1" gradientUnits="userSpaceOnUse" gradientTransform="translate(48.8885 41.9434) rotate(-21.8234) scale(6.80226 7.00291)">
            <stop stop-color="#08529C"/>
            <stop offset="0.1451" stop-color="#0E59A1"/>
            <stop offset="0.3544" stop-color="#1E6CAE"/>
            <stop offset="0.6027" stop-color="#378BC4"/>
            <stop offset="0.8786" stop-color="#5BB7E3"/>
            <stop offset="1" stop-color="#6DCCF2"/>
        </radialGradient>
        <linearGradient id="paint12_linear_1499_14438" x1="50.6826" y1="91.2337" x2="44.1161" y2="83.929" gradientUnits="userSpaceOnUse">
            <stop offset="0.3763" stop-color="#FBDB1C"/>
            <stop offset="0.4914" stop-color="#F9D61D"/>
            <stop offset="0.6335" stop-color="#F3C71F"/>
            <stop offset="0.7898" stop-color="#EAAD22"/>
            <stop offset="0.9552" stop-color="#DD8B27"/>
            <stop offset="1" stop-color="#D98028"/>
        </linearGradient>
        <linearGradient id="paint13_linear_1499_14438" x1="50.3868" y1="91.5003" x2="43.8202" y2="84.1956" gradientUnits="userSpaceOnUse">
            <stop offset="0.3763" stop-color="#FBDB1C"/>
            <stop offset="0.4914" stop-color="#F9D61D"/>
            <stop offset="0.6335" stop-color="#F3C71F"/>
            <stop offset="0.7898" stop-color="#EAAD22"/>
            <stop offset="0.9552" stop-color="#DD8B27"/>
            <stop offset="1" stop-color="#D98028"/>
        </linearGradient>
        <radialGradient id="paint14_radial_1499_14438" cx="0" cy="0" r="1" gradientUnits="userSpaceOnUse" gradientTransform="translate(69.0227 63.4219) rotate(2.60599) scale(1.86809 1.9434)">
            <stop stop-color="#8BCCF2"/>
            <stop offset="0.1376" stop-color="#84C5ED"/>
            <stop offset="0.3417" stop-color="#70B3E0"/>
            <stop offset="0.587" stop-color="#4F94CA"/>
            <stop offset="0.8622" stop-color="#216AAD"/>
            <stop offset="1" stop-color="#08529C"/>
        </radialGradient>
        <radialGradient id="paint15_radial_1499_14438" cx="0" cy="0" r="1" gradientUnits="userSpaceOnUse" gradientTransform="translate(37.3269 105.815) scale(3.81743 3.97188)">
            <stop stop-color="#8BCCF2"/>
            <stop offset="0.1376" stop-color="#84C5ED"/>
            <stop offset="0.3417" stop-color="#70B3E0"/>
            <stop offset="0.587" stop-color="#4F94CA"/>
            <stop offset="0.8622" stop-color="#216AAD"/>
            <stop offset="1" stop-color="#08529C"/>
        </radialGradient>
        <radialGradient id="paint16_radial_1499_14438" cx="0" cy="0" r="1" gradientUnits="userSpaceOnUse" gradientTransform="translate(55.8081 105.791) scale(3.92122 4.07988)">
            <stop stop-color="#8BCCF2"/>
            <stop offset="0.1376" stop-color="#84C5ED"/>
            <stop offset="0.3417" stop-color="#70B3E0"/>
            <stop offset="0.587" stop-color="#4F94CA"/>
            <stop offset="0.8622" stop-color="#216AAD"/>
            <stop offset="1" stop-color="#08529C"/>
        </radialGradient>
        <clipPath id="clip0_1499_14438">
            <rect width="72" height="113" fill="white"/>
        </clipPath>
    </defs>
<g clip-path="url(#clip0_1499_14438)">
<path d="M58.4741 74.9816C58.4741 74.9816 63.3646 73.0638 65.0795 67.9192C66.7944 62.7747 66.3353 61.0911 69.2655 60.5291C72.1958 59.9671 71.5791 65.6666 71.5026 67.191C71.4261 68.7154 70.1365 79.3581 62.3721 82.7464C54.6076 86.1348 54.2385 76.1922 58.4741 74.9816Z" fill="#E5DCD6"/>
<path d="M67.6293 62.3666C68.247 62.3666 68.7478 61.8456 68.7478 61.2029C68.7478 60.5601 68.247 60.0391 67.6293 60.0391C67.0115 60.0391 66.5107 60.5601 66.5107 61.2029C66.5107 61.8456 67.0115 62.3666 67.6293 62.3666Z" fill="#E5DCD6"/>
<path d="M69.5336 61.7817C70.1513 61.7817 70.6521 61.2606 70.6521 60.6179C70.6521 59.9752 70.1513 59.4541 69.5336 59.4541C68.9158 59.4541 68.415 59.9752 68.415 60.6179C68.415 61.2606 68.9158 61.7817 69.5336 61.7817Z" fill="#E5DCD6"/>
<path d="M70.8812 62.9457C71.499 62.9457 71.9998 62.4247 71.9998 61.782C71.9998 61.1392 71.499 60.6182 70.8812 60.6182C70.2635 60.6182 69.7627 61.1392 69.7627 61.782C69.7627 62.4247 70.2635 62.9457 70.8812 62.9457Z" fill="#E5DCD6"/>
<path d="M27.101 98.2808C27.0155 97.7937 26.5901 97.4846 26.1198 97.5548C25.6517 97.6251 25.3478 98.0489 25.4333 98.536C25.5189 99.0254 25.9487 99.3298 26.4168 99.2549C26.885 99.1823 27.1865 98.7678 27.101 98.2808Z" fill="#E5DCD6"/>
<path d="M28.9286 98.7529C28.8408 98.2659 28.4087 97.9638 27.9428 98.0387C27.4747 98.1113 27.1731 98.5281 27.2586 99.0152C27.3441 99.5022 27.7785 99.8043 28.2444 99.7317C28.7125 99.6568 29.0163 99.2423 28.9286 98.7529Z" fill="#E5DCD6"/>
<path d="M30.3867 97.7676C30.2989 97.2805 29.8668 96.9784 29.4009 97.0534C28.9328 97.1259 28.629 97.5428 28.7168 98.0298C28.8045 98.5169 29.2366 98.8189 29.7025 98.744C30.1684 98.6714 30.4744 98.2546 30.3867 97.7676Z" fill="#E5DCD6"/>
<path d="M29.8109 95.5315C29.6286 94.4145 29.6668 93.2414 29.9301 92.1783C30.1934 91.1128 30.4905 90.3612 31.0622 89.4503C31.6338 88.5394 32.2865 87.8182 33.1057 87.0314C33.9249 86.2423 34.9039 85.6123 35.9931 84.9099C36.0089 84.8982 35.4418 85.3126 36.2024 84.7623C36.9631 84.2121 39.2947 81.8283 38.7906 79.8192C37.9309 76.398 35.8964 75.26 32.8514 76.6182C32.444 76.8008 31.5955 77.2832 31.2805 77.5712C29.9999 78.7467 28.9016 79.7161 27.8619 81.2077C26.8244 82.6994 25.8881 84.3408 25.2467 86.1931C24.6053 88.0476 24.2385 90.3541 24.2947 92.3305C24.351 94.3068 24.7786 96.0303 25.6023 97.6741C25.9579 98.3813 26.5295 98.7255 27.1709 98.7419C29.0367 98.7864 29.9526 97.6109 29.8514 95.7493C29.8469 95.6837 29.8199 95.5877 29.8109 95.5315Z" fill="#E5DCD6"/>
<path d="M25.0778 96.4801C25.0778 96.4801 28.4019 96.4332 29.7792 95.3303L29.7342 94.9463C29.7342 94.9463 27.6412 96.2599 24.936 96.0843L25.0778 96.4801Z" fill="url(#paint0_radial_1499_14438)"/>
<path d="M31.8004 105.384C31.9895 105.557 32.7029 106.042 32.847 106.148H42.3398C42.9767 105.234 43.0488 103.801 43.0488 103.801C43.0488 103.801 46.8072 104.682 49.7059 104.021C49.7059 104.021 49.913 105.323 50.6782 106.148H60.2543C60.6414 106.002 60.9407 105.831 61.1005 105.632C61.6812 104.911 63.2093 101.207 63.2093 93.1257C63.2093 84.354 58.94 71.29 45.9655 71.29C41.5814 71.29 37.6384 73.0392 34.7779 75.9897C33.1553 77.6616 30.2971 80.9656 29.1695 91.3016C28.0938 101.207 30.9272 104.583 31.8004 105.384Z" fill="#E5DCD6"/>
<path d="M62.7279 90.784C63.1577 99.3872 61.8231 104.178 60.502 105.831C60.421 105.932 60.3738 106.023 60.3535 106.105C60.6911 105.967 60.9567 105.813 61.103 105.63C61.6836 104.909 63.2117 101.204 63.2117 93.1233C63.2117 90.0558 62.6874 86.4661 61.454 83.0918C61.8681 84.7005 62.4375 84.9698 62.7279 90.784Z" fill="#F4EAE6"/>
<path d="M30.3423 84.6025C29.8224 86.6398 29.5299 88.0354 29.1743 91.2973C28.094 101.205 30.9274 104.581 31.8007 105.382C31.9469 105.516 32.4623 105.937 32.8472 106.146C32.6896 106.066 32.3498 105.63 32.1405 105.445C30.9905 104.427 29.2665 101.469 29.5524 92.8989C29.7324 89.1313 29.9192 87.0285 30.3423 84.6025Z" fill="#C9C0BC"/>
<path d="M36.4073 82.6965C36.0585 89.7612 38.8357 95.1048 45.7652 95.1048C52.9332 95.1048 55.9827 89.7612 55.8567 83.1976C55.8004 80.2799 55.8229 77.5309 57.1598 75.7957C53.8042 72.5643 50.3608 71.2881 46.1815 71.2881H46.132C41.7592 71.2881 37.6586 73.056 34.7847 75.9877C35.7232 77.655 36.5424 79.931 36.4073 82.6965Z" fill="url(#paint1_radial_1499_14438)"/>
<path fill-rule="evenodd" clip-rule="evenodd" d="M1.72621 51.0615C1.45614 51.2348 1.18607 51.408 0.916003 51.5813C0.297099 51.977 -0.0494881 52.7006 0.00452543 53.4546C0.0922974 54.6442 0.281345 55.9508 0.634683 57.337C2.01428 62.7345 5.13131 66.3757 7.23108 68.3661C7.7262 68.8368 8.42388 68.9983 9.06754 68.8016C9.07879 68.7993 9.08779 68.7946 9.09905 68.7923C10.2086 68.4527 10.7847 67.1789 10.3279 66.0736C8.39012 61.3763 6.45014 56.679 4.5124 51.9817C4.04879 50.8507 2.72996 50.4175 1.72621 51.0615Z" fill="url(#paint2_linear_1499_14438)"/>
<path fill-rule="evenodd" clip-rule="evenodd" d="M63.2949 26.4045C63.6077 26.3436 63.9183 26.2851 64.2311 26.2242C64.9445 26.0884 65.6692 26.3811 66.1126 26.9782C66.8148 27.9219 67.5169 29.0248 68.1448 30.2986C70.6002 35.2652 70.6317 40.1405 70.3571 43.0816C70.2919 43.7771 69.8778 44.3835 69.2746 44.6856C69.2656 44.6903 69.2544 44.695 69.2454 44.6997C68.2034 45.2218 66.9543 44.6786 66.5807 43.5406C64.9918 38.7027 63.4029 33.8649 61.814 29.0295C61.4359 27.8704 62.1358 26.627 63.2949 26.4045Z" fill="url(#paint3_linear_1499_14438)"/>
<path d="M66.7293 32.3756C73.5012 50.6778 64.6304 66.9543 47.04 74.0002C29.4496 81.0462 9.79678 76.1898 3.02709 57.8877C-3.7426 39.5855 6.41194 22.782 24.0046 15.7383C41.5972 8.69473 59.9573 14.0711 66.7293 32.3756Z" fill="#F5ECE6"/>
<path fill-rule="evenodd" clip-rule="evenodd" d="M58.9086 33.3752C57.6078 31.043 56.0436 28.6709 53.8448 27.1629C51.4997 25.5542 48.9768 25.3996 46.3437 26.2286C43.2199 27.2097 40.3279 28.8254 37.3977 30.3335C37.5823 32.5767 35.2192 35.293 31.6745 36.7121C28.2829 38.0702 24.9274 37.7939 23.4982 36.1946C19.3797 37.3794 13.688 39.3347 10.7983 42.4982C10.6723 42.6364 10.5553 42.7839 10.445 42.9408C8.79532 45.2965 8.99112 49.5723 9.28369 52.2511C9.69105 55.9977 10.688 60.0651 12.4502 63.3879C13.9829 66.2775 18.1065 69.3654 21.12 70C27.7164 71.3909 36.3014 71.1168 42.72 69C51.4904 66.1104 57.9287 59.5669 62.88 51.5C66.3031 45.9269 61.7443 38.4613 58.9086 33.3752Z" fill="url(#paint4_radial_1499_14438)"/>
<path fill-rule="evenodd" clip-rule="evenodd" d="M13.2246 28.8255C11.9891 30.1906 11.0213 32.1155 11.3409 32.4433C11.3972 32.5018 11.62 32.6423 13.1256 31.5418C15.4707 29.8277 18.5472 26.8328 18.1556 26.2052C17.8293 25.683 15.0858 26.7695 13.2246 28.8255Z" fill="#D4C6BD"/>
<path fill-rule="evenodd" clip-rule="evenodd" d="M13.3866 29.0147C12.2568 30.1972 11.3836 31.8715 11.6829 32.1642C11.7347 32.2157 11.944 32.3421 13.3258 31.3961C15.4774 29.9209 18.2951 27.3357 17.9237 26.7784C17.6154 26.3171 15.088 27.235 13.3866 29.0147Z" fill="url(#paint5_linear_1499_14438)"/>
<path fill-rule="evenodd" clip-rule="evenodd" d="M40.497 17.8923C42.2705 17.9907 44.1857 18.6932 44.1497 19.1638C44.1429 19.2458 44.0619 19.5128 42.2479 19.8031C39.4235 20.255 35.2599 20.3066 35.1677 19.5619C35.0889 18.9437 37.8256 17.7448 40.497 17.8923Z" fill="#D4C6BD"/>
<path fill-rule="evenodd" clip-rule="evenodd" d="M40.4249 18.232C42.025 18.321 43.7512 18.9532 43.7197 19.3794C43.7129 19.4543 43.6409 19.6932 42.0047 19.9554C39.4571 20.3629 35.7009 20.4097 35.6177 19.7377C35.5479 19.1804 38.0145 18.0985 40.4249 18.232Z" fill="url(#paint6_linear_1499_14438)"/>
<path d="M38.854 18.829L40.2741 18.8313L40.3124 5.7416L38.8923 5.73926L38.854 18.829Z" fill="url(#paint7_linear_1499_14438)"/>
<path d="M40.1707 8.28468C42.3695 8.28468 44.1519 6.43009 44.1519 4.14234C44.1519 1.85459 42.3695 0 40.1707 0C37.9719 0 36.1895 1.85459 36.1895 4.14234C36.1895 6.43009 37.9719 8.28468 40.1707 8.28468Z" fill="#F5ECE6"/>
<path d="M15.3108 28.7691L14.2575 29.7596L5.50732 19.8171L6.55834 18.8242L15.3108 28.7691Z" fill="url(#paint8_linear_1499_14438)"/>
<path d="M4.58232 22.6743C6.7811 22.6743 8.56356 20.8197 8.56356 18.532C8.56356 16.2442 6.7811 14.3896 4.58232 14.3896C2.38354 14.3896 0.601074 16.2442 0.601074 18.532C0.601074 20.8197 2.38354 22.6743 4.58232 22.6743Z" fill="#F5ECE6"/>
<path d="M29.755 33.4429C31.3759 33.4429 32.6898 32.0758 32.6898 30.3894C32.6898 28.703 31.3759 27.3359 29.755 27.3359C28.1342 27.3359 26.8203 28.703 26.8203 30.3894C26.8203 32.0758 28.1342 33.4429 29.755 33.4429Z" fill="url(#paint9_linear_1499_14438)"/>
<path fill-rule="evenodd" clip-rule="evenodd" d="M31.6158 29.6446C32.0119 30.7147 31.4988 31.916 30.4703 32.3281C29.4418 32.7402 28.2872 32.2063 27.8911 31.1362C27.495 30.0661 28.0082 28.8648 29.0367 28.4527C30.0652 28.0406 31.2197 28.5745 31.6158 29.6446Z" fill="#68C0EC"/>
<path d="M16.4698 45.8213C17.0354 45.8213 17.4938 45.3443 17.4938 44.7559C17.4938 44.1674 17.0354 43.6904 16.4698 43.6904C15.9043 43.6904 15.4458 44.1674 15.4458 44.7559C15.4458 45.3443 15.9043 45.8213 16.4698 45.8213Z" fill="white"/>
<path d="M47.6646 33.3281C48.2302 33.3281 48.6886 32.8511 48.6886 32.2627C48.6886 31.6743 48.2302 31.1973 47.6646 31.1973C47.0991 31.1973 46.6406 31.6743 46.6406 32.2627C46.6406 32.8511 47.0991 33.3281 47.6646 33.3281Z" fill="white"/>
<path d="M22.4336 59.5828C26.17 59.5828 29.1988 56.4313 29.1988 52.5438C29.1988 48.6563 26.17 45.5049 22.4336 45.5049C18.6973 45.5049 15.6685 48.6563 15.6685 52.5438C15.6685 56.4313 18.6973 59.5828 22.4336 59.5828Z" fill="url(#paint10_radial_1499_14438)"/>
<g opacity="0.24">
<path opacity="0.24" d="M22.1206 57.2481C24.6264 57.2481 26.6578 55.1346 26.6578 52.5274C26.6578 49.9202 24.6264 47.8066 22.1206 47.8066C19.6148 47.8066 17.5835 49.9202 17.5835 52.5274C17.5835 55.1346 19.6148 57.2481 22.1206 57.2481Z" fill="#070606"/>
<path opacity="0.24" d="M20.4847 53.0425C21.3635 53.0425 22.0759 52.3013 22.0759 51.387C22.0759 50.4727 21.3635 49.7314 20.4847 49.7314C19.6059 49.7314 18.8936 50.4727 18.8936 51.387C18.8936 52.3013 19.6059 53.0425 20.4847 53.0425Z" fill="#070606"/>
</g>
<path d="M22.521 56.6748C25.0268 56.6748 27.0582 54.5613 27.0582 51.9541C27.0582 49.3469 25.0268 47.2334 22.521 47.2334C20.0152 47.2334 17.9839 49.3469 17.9839 51.9541C17.9839 54.5613 20.0152 56.6748 22.521 56.6748Z" fill="#070606"/>
<path d="M23.0003 51.6236C23.8791 51.6236 24.5915 50.8824 24.5915 49.968C24.5915 49.0537 23.8791 48.3125 23.0003 48.3125C22.1216 48.3125 21.4092 49.0537 21.4092 49.968C21.4092 50.8824 22.1216 51.6236 23.0003 51.6236Z" fill="white"/>
<path d="M48.8868 48.9871C52.6231 48.9871 55.652 45.8356 55.652 41.9481C55.652 38.0606 52.6231 34.9092 48.8868 34.9092C45.1505 34.9092 42.1216 38.0606 42.1216 41.9481C42.1216 45.8356 45.1505 48.9871 48.8868 48.9871Z" fill="url(#paint11_radial_1499_14438)"/>
<g opacity="0.24">
<path opacity="0.24" d="M48.8599 46.5821C51.3657 46.5821 53.397 44.4685 53.397 41.8613C53.397 39.2542 51.3657 37.1406 48.8599 37.1406C46.3541 37.1406 44.3228 39.2542 44.3228 41.8613C44.3228 44.4685 46.3541 46.5821 48.8599 46.5821Z" fill="#070606"/>
<path opacity="0.24" d="M47.224 42.3765C48.1027 42.3765 48.8151 41.6353 48.8151 40.721C48.8151 39.8066 48.1027 39.0654 47.224 39.0654C46.3452 39.0654 45.6328 39.8066 45.6328 40.721C45.6328 41.6353 46.3452 42.3765 47.224 42.3765Z" fill="#070606"/>
</g>
<path d="M49.2603 46.0088C51.7661 46.0088 53.7974 43.8953 53.7974 41.2881C53.7974 38.6809 51.7661 36.5674 49.2603 36.5674C46.7545 36.5674 44.7231 38.6809 44.7231 41.2881C44.7231 43.8953 46.7545 46.0088 49.2603 46.0088Z" fill="#070606"/>
<path d="M49.7396 40.9575C50.6183 40.9575 51.3307 40.2163 51.3307 39.302C51.3307 38.3877 50.6183 37.6465 49.7396 37.6465C48.8608 37.6465 48.1484 38.3877 48.1484 39.302C48.1484 40.2163 48.8608 40.9575 49.7396 40.9575Z" fill="white"/>
<path d="M48.7798 55.0398C49.4054 54.8431 50.0221 55.4051 49.8961 56.0725C49.6012 57.6203 48.7393 59.1447 47.5285 60.4583C46.2614 61.8376 44.614 62.9873 42.836 63.6991C41.7243 64.1441 40.4662 64.4953 39.1924 64.6943C36.3859 65.1346 33.5052 64.8465 31.9366 63.2308C31.5112 62.7929 31.6327 62.0483 32.1706 61.7743C34.4504 60.6129 40.7363 57.5734 48.7798 55.0398Z" fill="#002C72"/>
<path d="M47.5287 60.458C46.2616 61.8372 44.6142 62.987 42.8363 63.6988C41.7245 64.1437 40.4664 64.495 39.1926 64.694C39.1566 62.6451 40.4552 60.6406 42.546 59.8023C44.3194 59.0928 46.2099 59.4043 47.5287 60.458Z" fill="#B12E26"/>
<path d="M40.5766 58.1025C39.053 58.7582 38.0672 59.0626 37.939 59.1586C38.2248 59.6597 39.0778 60.5683 39.4108 60.4348C39.6134 60.3552 40.4619 60.0133 41.3598 59.6387C41.3036 59.5403 40.7634 58.7137 40.5766 58.1025Z" fill="white"/>
<path d="M40.7793 58.0228C40.8288 58.4607 41.4207 59.2545 41.6008 59.5402C42.681 59.0859 43.7545 58.6105 43.8041 58.4935C43.8648 58.353 43.696 57.4093 43.6195 56.8848C42.537 57.1283 41.576 57.6926 40.7793 58.0228Z" fill="white"/>
<path d="M45.9814 83.153C44.6109 83.2186 44.0325 83.9328 43.8727 84.1834C43.8569 84.2115 43.8389 84.2396 43.8232 84.27C43.6274 84.6189 43.5801 84.9046 43.5801 84.9046C43.6589 84.839 43.7444 84.7805 43.8299 84.729C43.9672 84.6611 44.172 84.5861 44.4758 84.5206L42.9814 89.3115H44.244L45.2005 86.2557H46.8772C47.1 86.2417 47.5276 86.155 47.7796 85.7406C47.8539 85.6001 47.9237 85.4174 47.9867 85.1856H45.5381L45.7429 84.5346C45.6416 84.5065 45.4908 84.4808 45.3558 84.4597C45.2613 84.4456 45.1757 84.4339 45.133 84.4292C45.1127 84.4269 45.1015 84.4246 45.1015 84.4246C45.2208 84.4175 45.3468 84.4105 45.4683 84.4082C45.5786 84.4035 47.1855 84.4129 47.28 84.4105C47.9439 84.3988 48.5673 84.366 49.0737 83.8696C49.391 83.5582 49.6139 83.1507 49.7624 82.7269C49.7961 82.6309 49.8119 82.5161 49.8524 82.4248C48.9724 82.9517 47.6424 83.0734 45.9814 83.153Z" fill="black"/>
<path d="M46.7692 91.2017C44.1135 91.2017 41.9597 88.9607 41.9597 86.1976C41.9597 83.4345 44.1135 81.1935 46.7692 81.1935C49.4046 81.1935 51.5426 83.3994 51.5764 86.132C51.5764 86.111 51.5786 86.0876 51.5786 86.0665C51.5786 82.8959 49.1098 80.3271 46.0625 80.3271C43.0153 80.3271 40.5464 82.8959 40.5464 86.0665C40.5464 89.237 43.0153 91.8058 46.0625 91.8058C48.4639 91.8058 50.5051 90.2088 51.2636 87.9819C50.5726 89.8646 48.8217 91.2017 46.7692 91.2017Z" fill="black"/>
<path d="M45.792 83.153C44.4214 83.2186 43.843 83.9328 43.6832 84.1834C43.6675 84.2115 43.6495 84.2396 43.6337 84.27C43.4379 84.6189 43.3906 84.9046 43.3906 84.9046C43.4694 84.839 43.5549 84.7805 43.6405 84.729C43.7777 84.6611 43.9825 84.5861 44.2864 84.5206L42.792 89.3115H44.0546L45.011 86.2557H46.6877C46.9105 86.2417 47.3381 86.155 47.5902 85.7406C47.6645 85.6001 47.7342 85.4174 47.7972 85.1856H45.3486L45.5534 84.5346C45.4522 84.5065 45.3014 84.4808 45.1663 84.4597C45.0718 84.4456 44.9863 84.4339 44.9435 84.4292C44.9233 84.4269 44.912 84.4246 44.912 84.4246C45.0313 84.4175 45.1573 84.4105 45.2789 84.4082C45.3891 84.4035 46.996 84.4129 47.0906 84.4105C47.7545 84.3988 48.3779 84.366 48.8843 83.8696C49.2016 83.5582 49.4244 83.1507 49.5729 82.7269C49.6067 82.6309 49.6224 82.5161 49.663 82.4248C48.7852 82.9517 47.4552 83.0734 45.792 83.153Z" fill="url(#paint12_linear_1499_14438)"/>
<path d="M46.5822 91.2017C43.9265 91.2017 41.7727 88.9607 41.7727 86.1976C41.7727 83.4345 43.9265 81.1935 46.5822 81.1935C49.2176 81.1935 51.3556 83.3994 51.3894 86.132C51.3894 86.111 51.3916 86.0876 51.3916 86.0665C51.3916 82.8959 48.9228 80.3271 45.8755 80.3271C42.8282 80.3271 40.3594 82.8959 40.3594 86.0665C40.3594 89.237 42.8282 91.8058 45.8755 91.8058C48.2768 91.8058 50.3181 90.2088 51.0765 87.9819C50.3834 89.8646 48.6347 91.2017 46.5822 91.2017Z" fill="url(#paint13_linear_1499_14438)"/>
<path d="M61.1615 73.867C61.0355 73.5368 61.0535 73.4478 61.3753 73.1856C61.8705 72.7805 62.3363 72.3379 62.7684 71.8579C63.7879 70.7245 64.5914 69.3875 65.0798 67.9192C66.7969 62.7747 66.3356 61.0911 69.2658 60.5291C72.196 59.9671 71.5794 65.6666 71.5029 67.191C71.4511 68.1979 71.2643 69.2071 71.0528 70.1883C70.6612 72.0007 70.0918 73.7804 69.3108 75.4546C69.088 75.9323 68.8472 76.3983 68.5884 76.8549C68.4151 77.1617 68.163 77.8197 67.839 77.9508C67.4339 78.1171 66.6124 77.8993 66.1938 77.8267C65.6447 77.7307 65.1045 77.5785 64.5891 77.3607C63.5134 76.9088 62.5389 76.1712 61.857 75.197C61.6026 74.8341 61.3911 74.4407 61.2268 74.0286C61.1998 73.9653 61.1795 73.9138 61.1615 73.867Z" fill="#E5DCD6"/>
<path d="M67.6298 62.3666C68.2475 62.3666 68.7483 61.8456 68.7483 61.2029C68.7483 60.5601 68.2475 60.0391 67.6298 60.0391C67.012 60.0391 66.5112 60.5601 66.5112 61.2029C66.5112 61.8456 67.012 62.3666 67.6298 62.3666Z" fill="#E5DCD6"/>
<path d="M69.5336 61.7817C70.1513 61.7817 70.6521 61.2606 70.6521 60.6179C70.6521 59.9752 70.1513 59.4541 69.5336 59.4541C68.9158 59.4541 68.415 59.9752 68.415 60.6179C68.415 61.2606 68.9158 61.7817 69.5336 61.7817Z" fill="#E5DCD6"/>
<path d="M70.8817 62.9457C71.4995 62.9457 72.0002 62.4247 72.0002 61.782C72.0002 61.1392 71.4995 60.6182 70.8817 60.6182C70.264 60.6182 69.7632 61.1392 69.7632 61.782C69.7632 62.4247 70.264 62.9457 70.8817 62.9457Z" fill="#E5DCD6"/>
<path d="M41.2666 106.146H42.3401C42.977 105.233 43.049 103.8 43.049 103.8C43.049 103.8 46.8075 104.68 49.7062 104.02C49.7062 104.02 49.9133 105.322 50.6785 106.146H52.004V106.144C50.7707 105.582 50.4804 102.692 50.4804 102.692C47.7617 103.615 42.1893 102.692 42.1893 102.692C42.4504 104.203 41.7527 105.472 41.2666 106.146Z" fill="#C9C0BC"/>
<path d="M66.6191 62.7256C66.6191 62.7256 69.2612 63.7138 71.5275 63.5358L71.5838 64.0814C71.5838 64.0814 67.8681 64.2336 66.457 63.1541L66.6191 62.7256Z" fill="url(#paint14_radial_1499_14438)"/>
<path d="M37.6634 112.998C33.6214 112.979 32.5726 112.204 32.1248 111.89C31.3663 111.361 30.8667 110.462 30.8667 109.441C30.8667 107.411 32.4488 105.765 34.4001 105.765H41.1743C43.1255 105.765 44.7077 107.411 44.7077 109.441C44.7077 110.366 44.163 111.752 43.094 112.265C42.1488 112.722 41.8022 113.019 37.6634 112.998Z" fill="#E5DCD6"/>
<path d="M41.6222 112.801C42.3109 112.672 42.6327 112.487 43.0941 112.264C44.1631 111.749 44.7077 110.365 44.7077 109.44C44.7077 107.569 43.3619 106.029 41.6244 105.797L41.2666 106.143C41.2666 106.143 43.2336 106.89 43.6882 108.265C44.1428 109.642 43.0063 112.278 41.6222 112.801Z" fill="#C9C0BC"/>
<path d="M55.6566 112.998C51.6145 112.979 50.5658 112.204 50.1179 111.89C49.3595 111.361 48.8599 110.462 48.8599 109.441C48.8599 107.411 50.442 105.765 52.3932 105.765H59.1674C61.1187 105.765 62.7008 107.411 62.7008 109.441C62.7008 110.366 62.1562 111.752 61.0872 112.265C60.1419 112.722 59.7953 113.019 55.6566 112.998Z" fill="#E5DCD6"/>
<path d="M49.499 108.986C49.5755 107.815 50.6468 106.607 51.3647 105.926C49.9154 106.385 48.8599 107.785 48.8599 109.443C48.8599 110.464 49.3595 111.363 50.1179 111.892C50.3452 112.051 50.7301 112.328 51.5785 112.567C50.253 112.08 49.382 110.757 49.499 108.986Z" fill="#C9C0BC"/>
<path d="M42.3083 106.2L32.7974 106.053L31.9399 105.43L42.7134 105.462L42.3083 106.2Z" fill="url(#paint15_radial_1499_14438)"/>
<path d="M60.6507 106.176L50.6559 106.221L50.2778 105.595L61.3371 105.361L60.6507 106.176Z" fill="url(#paint16_radial_1499_14438)"/>
<path opacity="0.62" d="M41.692 105.46C41.692 105.46 41.4939 106.024 41.2666 106.2H42.3086L42.7137 105.462L41.692 105.46Z" fill="#E5DCD6"/>
</g>
</svg>
