<?xml version="1.0" encoding="UTF-8"?>
<svg xmlns="http://www.w3.org/2000/svg" xmlns:xlink="http://www.w3.org/1999/xlink" width="17.5" height="16.5" viewBox="0 0 17.5 16.5" version="1.1">
<g id="surface1">
<path style=" stroke:none;fill-rule:nonzero;fill:rgb(0%,0%,0%);fill-opacity:0.25;" d="M 7.796875 7.882813 L 15.175781 0.5 L 16.503906 1.828125 L 15.175781 3.160156 L 17.5 5.488281 L 16.171875 6.816406 L 13.84375 4.488281 L 12.515625 5.820313 L 14.507813 7.8125 L 13.179688 9.144531 L 11.1875 7.148438 L 9.125 9.210938 C 9.765625 10.183594 10.023438 11.359375 9.847656 12.507813 C 9.671875 13.660156 9.074219 14.703125 8.171875 15.441406 C 7.273438 16.175781 6.128906 16.550781 4.96875 16.496094 C 3.804688 16.4375 2.707031 15.949219 1.882813 15.128906 C 1.054688 14.304688 0.566406 13.203125 0.507813 12.039063 C 0.445313 10.875 0.820313 9.726563 1.558594 8.824219 C 2.296875 7.921875 3.34375 7.324219 4.496094 7.148438 C 5.648438 6.976563 6.828125 7.234375 7.796875 7.882813 Z M 7.199219 13.796875 C 7.472656 13.539063 7.691406 13.226563 7.84375 12.882813 C 7.996094 12.539063 8.074219 12.164063 8.082031 11.789063 C 8.085938 11.410156 8.015625 11.035156 7.875 10.6875 C 7.730469 10.339844 7.523438 10.019531 7.253906 9.753906 C 6.988281 9.488281 6.671875 9.277344 6.324219 9.136719 C 5.972656 8.992188 5.597656 8.921875 5.222656 8.929688 C 4.847656 8.933594 4.472656 9.015625 4.128906 9.164063 C 3.785156 9.316406 3.472656 9.535156 3.214844 9.808594 C 2.699219 10.34375 2.414063 11.054688 2.421875 11.792969 C 2.429688 12.535156 2.726563 13.242188 3.246094 13.765625 C 3.769531 14.289063 4.476563 14.585938 5.21875 14.589844 C 5.957031 14.597656 6.667969 14.3125 7.199219 13.800781 Z M 7.199219 13.796875 "/>
<path style=" stroke:none;fill-rule:nonzero;fill:rgb(100%,100%,100%);fill-opacity:1;" d="M 7.296875 7.382813 L 14.675781 0 L 16.003906 1.328125 L 14.675781 2.660156 L 17 4.988281 L 15.671875 6.316406 L 13.34375 3.988281 L 12.015625 5.320313 L 14.007813 7.3125 L 12.679688 8.644531 L 10.6875 6.648438 L 8.625 8.710938 C 9.265625 9.683594 9.523438 10.859375 9.347656 12.007813 C 9.171875 13.160156 8.574219 14.203125 7.671875 14.941406 C 6.773438 15.675781 5.628906 16.050781 4.46875 15.996094 C 3.304688 15.9375 2.207031 15.449219 1.382813 14.628906 C 0.554688 13.804688 0.0664063 12.703125 0.0078125 11.539063 C -0.0546875 10.375 0.320313 9.226563 1.058594 8.324219 C 1.796875 7.421875 2.84375 6.824219 3.996094 6.648438 C 5.148438 6.476563 6.328125 6.734375 7.296875 7.382813 Z M 6.699219 13.296875 C 6.972656 13.039063 7.191406 12.726563 7.34375 12.382813 C 7.496094 12.039063 7.574219 11.664063 7.582031 11.289063 C 7.585938 10.910156 7.515625 10.535156 7.375 10.1875 C 7.230469 9.839844 7.023438 9.519531 6.753906 9.253906 C 6.488281 8.988281 6.171875 8.777344 5.824219 8.636719 C 5.472656 8.492188 5.097656 8.421875 4.722656 8.429688 C 4.347656 8.433594 3.972656 8.515625 3.628906 8.664063 C 3.285156 8.816406 2.972656 9.035156 2.714844 9.308594 C 2.199219 9.84375 1.914063 10.554688 1.921875 11.292969 C 1.929688 12.035156 2.226563 12.742188 2.746094 13.265625 C 3.269531 13.789063 3.976563 14.085938 4.71875 14.089844 C 5.457031 14.097656 6.167969 13.8125 6.699219 13.300781 Z M 6.699219 13.296875 "/>
</g>
</svg>
