<svg width="31" height="36" viewBox="0 0 31 36" fill="none" xmlns="http://www.w3.org/2000/svg">
<path d="M25.5856 34.8374C26.9498 34.8315 27.9804 34.5157 28.743 33.8724C29.571 33.1754 30.0059 32.2162 29.9999 31.0963C29.994 29.9465 29.5472 28.9815 28.7132 28.2964C27.9447 27.6649 26.9081 27.3611 25.5439 27.3671L10.353 27.4505L10.3113 20.9213L23.7151 20.8439C25.0733 20.8379 26.086 20.5222 26.8128 19.8848C27.5932 19.1997 27.9983 18.2704 27.9924 17.1921C27.9864 16.1019 27.5575 15.1786 26.7473 14.5173C26.0086 13.9156 25.0018 13.6237 23.6734 13.6356L10.2696 13.7131L10.2398 8.39923L24.8886 8.31583C26.2707 8.30987 27.3013 8.00009 28.0519 7.37458C28.8621 6.6895 29.291 5.73634 29.2851 4.62234C29.2791 3.52025 28.8383 2.57901 28.0221 1.90584C27.2715 1.28629 26.235 0.988429 24.8529 1.00034L6.37355 1.09566C5.23572 1.10162 4.31235 1.26246 3.53791 1.59011C2.65624 1.95946 1.99499 2.57305 1.57798 3.40111C1.19076 4.16363 0.994174 5.11083 1.00013 6.23079L1.13715 29.8691C1.14906 31.6026 1.62564 32.9132 2.55497 33.7592C3.4426 34.5694 4.75319 34.9566 6.57014 34.9447L25.5856 34.8374Z" fill="#F89832" stroke="#221F1F" stroke-width="1.3482" stroke-miterlimit="10" stroke-linecap="round" stroke-linejoin="round"/>
<path d="M28.7132 28.2964C27.9447 27.665 26.9081 27.3612 25.5439 27.3671L10.353 27.4505L10.3113 20.9214L23.715 20.844C25.0733 20.838 26.086 20.5223 26.8128 19.8848C27.5932 19.1998 27.9983 18.2704 27.9923 17.1922C27.9864 16.102 27.5575 15.1786 26.7473 14.5174C26.0086 13.9157 25.0018 13.6238 23.6733 13.6357L10.2696 13.7131L10.2398 8.39929L24.8886 8.31589C26.2707 8.30994 27.3013 8.00016 28.0519 7.37465C28.8621 6.68957 29.291 5.73641 29.2851 4.62241C29.2791 3.52032 28.8383 2.57908 28.0221 1.90591C27.5515 1.51869 26.9558 1.27444 26.2469 1.13147C26.7115 1.46507 27.0868 1.88208 27.2536 2.42419C27.7064 3.88371 27.2358 5.40281 25.8239 6.15937C23.5006 7.40444 20.5934 7.28529 18.0318 7.27338C14.9519 7.26146 11.8661 7.13636 8.79813 7.45805C8.92919 9.82307 8.87557 12.1881 8.83983 14.5591C12.7895 14.851 16.757 14.4161 20.6947 14.6782C22.5593 14.8033 25.4784 15.1846 25.5916 17.6211C25.6988 20.0397 21.2547 19.6763 19.8905 19.5989C16.2387 19.3963 12.8907 19.4738 9.22109 19.4619C9.04833 20.6772 9.08407 22.1665 9.10195 23.0839C9.13769 24.8651 9.1496 26.6523 9.16152 28.4335C11.9197 28.1058 14.946 28.7313 17.6863 28.6062C19.7356 28.5169 21.8385 28.4037 23.8699 28.7552C25.1686 28.9815 26.8545 29.3807 27.2179 30.8461C27.6289 32.5023 25.7465 33.4912 24.4776 33.8545C22.5057 34.4264 20.373 34.2477 18.3476 34.2299C14.5647 34.1941 10.764 34.349 6.98117 34.4443C6.00418 34.4681 4.78295 34.4979 3.5498 34.4026C4.34212 34.772 5.33697 34.9507 6.57012 34.9447L25.5856 34.8375C26.9498 34.8315 27.9804 34.5158 28.7429 33.8724C29.571 33.1754 30.0059 32.2163 29.9999 31.0963C29.994 29.9526 29.5472 28.9875 28.7132 28.2964Z" fill="#F89832"/>
<path d="M5.37285 2.4596C2.16786 2.60853 2.37636 7.15389 2.37041 9.34616C2.35253 14.4813 2.58487 19.6164 2.56699 24.7516C2.56699 25.3652 3.52611 24.9184 3.52015 24.4001C3.50824 20.6709 3.48441 16.9476 3.37718 13.2184C3.28782 10.0789 2.45976 4.78887 5.40264 2.70384C5.49795 2.63236 5.5337 2.44768 5.37285 2.4596Z" fill="white"/>
<path d="M3.39487 26.2175C3.18637 25.866 2.65022 26.1579 2.62639 26.4974C2.60852 26.7655 2.64426 27.0098 2.63831 27.2719C2.61448 27.957 3.54976 27.6234 3.53785 27.0574C3.53785 26.7536 3.55572 26.4915 3.39487 26.2175Z" fill="white"/>
</svg>
