<svg width="42" height="40" viewBox="0 0 42 40" fill="none" xmlns="http://www.w3.org/2000/svg">
<path d="M12.518 32.6969C13.0092 32.1399 13.5561 31.1677 14.1941 29.7093L15.4246 26.8836L27.0208 26.8178L28.2969 29.5928C28.5046 30.0131 28.7527 30.4942 29.0413 31.0411C29.3755 31.669 29.6895 32.1399 30.0035 32.4691C30.3478 32.8286 30.7732 33.1172 31.2694 33.3249C31.7555 33.5274 32.3278 33.6287 32.9709 33.6236C34.0799 33.6186 35.047 33.2692 35.8471 32.5906C36.9055 31.6892 37.1232 30.7372 37.1182 30.0941C37.1131 29.3194 36.7637 28.2661 36.0244 26.7925L27.6285 9.61592C27.2285 8.74494 26.8993 8.04613 26.636 7.52455C26.3474 6.94221 25.9878 6.39025 25.5675 5.88386C25.1016 5.32177 24.4889 4.86096 23.7547 4.51662C23.0153 4.16722 22.114 3.99504 21.0658 4.00011C20.0327 4.00517 19.1415 4.18747 18.4072 4.54194C17.673 4.89641 17.0653 5.37241 16.5994 5.95982C16.1842 6.48646 15.7943 7.1397 15.4449 7.91446L6.59327 27.1065C6.24893 27.8357 6.00587 28.3977 5.84889 28.818C5.66659 29.3194 5.57544 29.8207 5.57544 30.3068C5.5805 30.9651 5.81344 31.9272 6.90723 32.7932C7.71745 33.4363 8.65426 33.7553 9.69741 33.7502C10.9532 33.7452 11.9002 33.3907 12.518 32.6969ZM19.3137 17.8295L21.1012 14.2088L22.9647 17.8092L19.3137 17.8295Z" fill="#FF00A1" stroke="#221F1F" stroke-width="1.3482" stroke-miterlimit="10" stroke-linecap="round" stroke-linejoin="round"/>
<path d="M20.9798 12.0918C21.0811 12.6134 21.076 13.7122 21.1013 14.2085L22.9648 17.8089L19.5265 17.8291C18.9441 18.0671 18.4377 18.4419 18.2808 19.0394C20.443 18.8976 22.6053 19.1711 24.7625 18.9331C23.8409 16.8569 22.2559 13.9553 20.9798 12.0918Z" fill="#E973AD"/>
<path d="M18.7618 5.67597C15.921 7.25083 15.0551 11.2563 13.779 14.0263C12.8624 16.0113 11.9054 17.971 11.0547 19.9864C10.2596 21.8702 9.30762 23.7792 8.82149 25.7744C8.74047 26.1086 9.21647 25.982 9.31269 25.7795C10.8875 22.3158 12.2447 18.761 13.8752 15.3175C14.6804 13.6212 15.4096 11.8994 16.1337 10.1676C16.8224 8.52186 17.901 7.25589 18.9036 5.82789C18.9745 5.71142 18.8631 5.62027 18.7618 5.67597Z" fill="white"/>
<path d="M8.23886 26.9448C7.9249 27.4157 7.67677 27.9626 7.46409 28.4842C7.28179 28.9197 7.96541 28.9602 8.07175 28.5754C8.21354 28.0639 8.44141 27.5119 8.4566 26.9802C8.46167 26.8385 8.29962 26.8536 8.23886 26.9448Z" fill="white"/>
</svg>
