<svg width="17" height="34" viewBox="0 0 17 34" fill="none" xmlns="http://www.w3.org/2000/svg">
<path d="M13.8988 26.2043L13.1317 26.2095L13.0259 7.35397L13.9358 7.34868C14.6395 7.34339 15.1791 7.03125 15.5495 6.41225C15.9039 5.81971 16.0785 5.05257 16.0732 4.13731C16.0679 3.23791 15.8828 2.48665 15.5124 1.90469C15.1368 1.30156 14.5919 1 13.8988 1L3.36529 1.0582C2.67222 1.06349 2.13258 1.37563 1.75695 1.98405C1.39719 2.57659 1.21203 3.32785 1.21732 4.21667C1.22261 5.13193 1.40777 5.89907 1.77282 6.48632C2.14845 7.09473 2.69868 7.40159 3.39703 7.3963L4.15358 7.39101L4.2594 26.2466L3.35999 26.2519C2.66693 26.2572 2.12729 26.5693 1.75166 27.1777C1.3919 27.7703 1.20673 28.5215 1.21202 29.4103C1.21731 30.3256 1.40248 31.0927 1.76753 31.68C2.14316 32.2884 2.69338 32.5953 3.39173 32.59L13.9253 32.5318C14.6289 32.5265 15.1685 32.2143 15.5389 31.5953C15.8934 31.0028 16.0679 30.2357 16.0626 29.3204C16.0574 28.421 15.8722 27.6697 15.5018 27.0878C15.1368 26.5058 14.5919 26.199 13.8988 26.2043Z" fill="#2E469A" stroke="#221F1F" stroke-width="1.3482" stroke-miterlimit="10" stroke-linecap="round" stroke-linejoin="round"/>
<path d="M13.8988 26.2043L13.1316 26.2096L13.0258 7.35397L13.9358 7.34868C14.6394 7.34339 15.1791 7.03125 15.5494 6.41225C15.9039 5.81971 16.0785 5.05257 16.0732 4.13731C16.0679 3.23791 15.8827 2.48665 15.5124 1.90469C15.1368 1.30156 14.5918 1 13.8988 1H13.375C14.2003 1.47086 14.7188 2.23799 14.5654 3.56064C14.3167 5.6557 12.5285 6.45987 10.6186 6.60271C10.6927 7.51269 10.5975 8.44912 10.608 9.34852C10.6292 11.2637 10.7138 13.1789 10.7191 15.0941C10.735 19.0726 10.9466 23.0458 10.9572 27.019C10.9572 27.0296 10.9519 27.0349 10.9519 27.0455C12.4333 27.1989 14.1157 27.6592 13.957 29.2463C13.7083 31.6959 10.4176 31.7911 8.53413 31.7752C6.40732 31.7541 3.96837 32.0345 1.86801 31.6483C1.82569 31.643 1.78866 31.6271 1.74634 31.6165C1.75692 31.6377 1.7675 31.6641 1.78338 31.6853C2.15901 32.2937 2.70921 32.6006 3.40757 32.5953L13.9411 32.5371C14.6447 32.5318 15.1844 32.2196 15.5547 31.6006C15.9092 31.0081 16.0838 30.241 16.0785 29.3257C16.0732 28.4263 15.888 27.675 15.5177 27.0931C15.1368 26.5058 14.5918 26.199 13.8988 26.2043Z" fill="#2E469A"/>
<path d="M4.72503 5.4973C4.21713 5.01586 3.50819 4.88889 3.37592 4.0953C3.30186 3.65089 3.47645 2.67743 3.86266 2.43406C3.91028 2.40761 3.97376 2.28593 3.88911 2.25947C3.25424 2.06372 2.90507 3.40753 2.79925 3.79903C2.50298 4.85714 3.33361 5.84648 4.35998 6.04752C4.60863 6.10042 4.94723 5.71421 4.72503 5.4973Z" fill="white"/>
<path d="M2.68803 30.5104C2.73035 30.5421 2.77795 30.5474 2.82557 30.5421C2.93667 30.4469 3.01075 30.304 3.01604 30.0765C3.02133 29.6903 2.98429 29.2935 3.04778 28.9073C3.11127 28.5158 3.24883 28.1349 3.58213 27.8915C3.88899 27.6693 4.25403 27.5318 4.5503 27.3043C4.5503 27.2884 4.56089 27.2725 4.55559 27.262C3.84137 27.4154 3.19063 27.7487 2.72506 28.2248C2.66687 28.3201 2.61396 28.4206 2.57163 28.5158C2.32298 29.0396 2.12193 30.1295 2.68803 30.5104Z" fill="white"/>
<path d="M5.71965 7.57109C5.74081 7.42295 5.53978 7.47057 5.50275 7.5658C5.22764 8.2906 5.22763 9.0207 5.2488 9.78783C5.29112 11.3009 5.20647 12.8087 5.20118 14.3218C5.1906 17.7396 5.21706 21.1784 5.30171 24.5908C5.307 24.813 5.66147 24.6755 5.66676 24.5009C5.78844 21.6652 5.7567 18.8188 5.76728 15.9831C5.77257 14.5546 5.84663 13.1209 5.84134 11.6924C5.84134 10.3539 5.54506 8.89902 5.71965 7.57109Z" fill="white"/>
</svg>
