<svg width="29" height="33" viewBox="0 0 29 33" fill="none" xmlns="http://www.w3.org/2000/svg">
<path d="M9.4967 27.58L9.44909 19.258L20.3794 19.1945L20.427 27.5165C20.4376 28.9609 20.8079 30.0825 21.538 30.8655C22.2523 31.6326 23.194 32.0188 24.3367 32.0135C25.453 32.0082 26.3895 31.622 27.1249 30.8655C27.8867 30.0825 28.2676 28.9397 28.2571 27.4742L28.1354 5.47604C28.1248 4.01055 27.7386 2.87837 26.9714 2.10594C26.2361 1.36526 25.2943 0.989636 24.1622 1.00022C23.0406 1.00551 22.1094 1.39701 21.3952 2.15885C20.6651 2.94185 20.2948 4.07403 20.3053 5.51836L20.3424 10.3116L9.41206 10.3751L9.37502 5.58185C9.36444 4.11636 8.97823 2.98418 8.21638 2.21175C7.481 1.47107 6.53928 1.10074 5.40709 1.10603C4.25375 1.11132 3.31203 1.50811 2.60839 2.27524C1.89416 3.05825 1.53969 4.18514 1.54498 5.62417L1.66667 27.6223C1.67725 29.0614 2.04759 30.1883 2.77768 30.9713C3.4972 31.7384 4.43893 32.1246 5.5764 32.1193C6.69271 32.114 7.62913 31.7278 8.36452 30.9713C9.12636 30.1883 9.50728 29.0455 9.4967 27.58Z" fill="#F174A7" stroke="#221F1F" stroke-width="1.3482" stroke-miterlimit="10" stroke-linecap="round" stroke-linejoin="round"/>
<path d="M4.51293 1.51841C6.02603 2.34903 6.97833 2.97861 7.21641 4.6663C7.45977 6.39632 6.83019 8.71358 7.34867 10.3801C7.74546 11.6604 10.4648 11.0309 11.142 10.3589L9.41728 10.3695L9.38025 5.57628C9.36966 4.11079 8.98346 2.97861 8.22162 2.20619C7.48623 1.46551 6.5445 1.09517 5.41232 1.10046C4.9203 1.10575 4.4759 1.1904 4.06323 1.33324C4.21137 1.38086 4.3595 1.43376 4.51293 1.51841Z" fill="#F174A7"/>
<path d="M15.4063 16.8933C12.8933 16.9991 10.3909 17.2266 7.87787 17.2213C7.84612 19.7819 8.2535 22.3373 8.06833 24.8979C7.95194 26.501 7.60276 28.1939 6.1743 29.1621C4.02633 30.6117 2.47091 29.2044 1.66675 27.3157V27.6278C1.67733 29.0669 2.04766 30.1938 2.77776 30.9768C3.49728 31.7439 4.439 32.1301 5.57648 32.1248C6.69279 32.1195 7.62921 31.7333 8.3646 30.9768C9.12644 30.1885 9.50736 29.051 9.49678 27.5855L9.44917 19.2635L20.3795 19.2L20.3953 21.9405C20.5117 21.3744 20.6123 20.7924 20.6916 20.1946C20.8133 19.3111 21.3635 18.7132 21.554 17.872C21.6492 17.4488 21.5646 17.1578 21.3847 16.9515C19.3954 16.925 17.4009 16.8086 15.4063 16.8933Z" fill="#F174A7"/>
<path d="M28.1353 5.47604C28.1247 4.01055 27.7385 2.87837 26.9714 2.10594C26.236 1.36526 25.2943 0.989636 24.1621 1.00022C23.0405 1.00551 22.1093 1.39701 21.3951 2.15885C21.3845 2.16943 21.3792 2.18001 21.3687 2.19059C22.3633 1.85729 23.5113 1.94194 24.5694 2.59267C26.2624 3.63492 26.2571 5.80405 26.3259 7.55523C26.4529 10.7401 26.3947 13.9304 26.5481 17.1206C26.7015 20.2632 26.9185 23.4322 26.7439 26.5801C26.6539 28.2149 26.1566 30.1512 24.5377 30.9448C23.4426 31.4792 22.5379 31.458 21.7972 31.093C22.4797 31.7014 23.3262 32.0188 24.3367 32.0135C25.453 32.0082 26.3894 31.622 27.1248 30.8655C27.8866 30.0825 28.2676 28.9397 28.257 27.4742L28.1353 5.47604Z" fill="#F174A7"/>
<path d="M4.63991 2.44453C2.53426 3.51322 2.83053 5.96805 2.75117 7.97317C2.61891 11.1422 2.566 14.4911 2.80937 17.6549C2.8464 18.1469 3.5818 17.8295 3.60825 17.4644C3.76168 15.1472 3.5765 12.7823 3.56063 10.4597C3.54476 8.0102 3.0157 4.61366 4.74572 2.59795C4.81979 2.49743 4.7563 2.38104 4.63991 2.44453Z" fill="white"/>
<path d="M3.58715 19.5756C3.58186 19.4433 3.57128 19.311 3.57657 19.1788C3.60832 18.5704 2.8306 18.8349 2.74066 19.274C2.6613 19.6761 2.7777 20.1417 2.78828 20.549C2.79357 20.7818 3.07397 20.8506 3.25385 20.7818C3.48663 20.6972 3.61889 20.4855 3.61889 20.2422C3.61889 20.0411 3.61889 19.8031 3.58715 19.5756Z" fill="white"/>
<path d="M22.4692 2.57706C21.4428 3.19606 21.3211 4.15895 21.3 5.29113C21.2629 6.96295 21.1254 8.85697 21.4375 10.5129C21.501 10.8515 21.9242 10.6187 21.9666 10.3859C22.411 7.92583 21.5275 4.94724 22.5961 2.67759C22.6438 2.58236 22.5379 2.53474 22.4692 2.57706Z" fill="white"/>
<path d="M22.4956 29.4268C21.6333 28.2047 22.0142 24.9615 22.0618 23.5119C22.0988 22.4062 22.1835 21.1894 21.7549 20.1524C21.6756 19.962 21.3899 20.1366 21.3793 20.29C21.2788 22.02 21.2947 23.7606 21.3105 25.4959C21.3211 26.7921 20.9349 28.9242 21.9824 29.9241C22.2628 30.1886 22.702 29.7178 22.4956 29.4268Z" fill="white"/>
<path d="M19.3637 11.1844C17.2845 10.9728 15.036 11.0574 12.9727 11.3537C12.9357 11.359 12.8934 11.433 12.9516 11.4436C14.9884 11.7505 17.2263 11.7293 19.2738 11.523C19.4272 11.5071 19.5754 11.2108 19.3637 11.1844Z" fill="white"/>
</svg>
