<svg width="28" height="31" viewBox="0 0 28 31" fill="none" xmlns="http://www.w3.org/2000/svg">
<path d="M26.0016 1.8456C25.6538 1.28707 25.1491 1.00781 24.5073 1.00781L14.7528 1.06171C14.111 1.0666 13.6112 1.35566 13.2634 1.91909C12.9302 2.46781 12.7587 3.16351 12.7636 3.9866C12.7685 4.83418 12.9449 5.54458 13.2781 6.08841C13.6259 6.65183 14.1355 6.93599 14.7822 6.93109L15.6004 6.92619L15.6738 19.8065C15.6934 23.4467 14.0179 23.9219 12.553 23.9317C11.7397 23.9366 11.1077 23.7995 10.7255 23.5349C10.314 23.2507 10.0347 22.9323 9.86814 22.5599C9.64768 22.07 9.42231 21.389 9.19694 20.5365C8.91768 19.5028 8.50614 18.7385 7.94271 18.2093C7.3303 17.6361 6.47292 17.3471 5.39017 17.3519C4.31232 17.3568 3.39614 17.6557 2.67594 18.2387C2.13702 18.6748 1.49031 19.493 1.50011 20.9089C1.50501 21.7858 1.66668 22.7167 1.98514 23.6623C2.29869 24.6029 2.71024 25.4505 3.21487 26.1854C4.18494 27.5719 5.47345 28.5861 7.05103 29.2034C8.55513 29.7913 10.4365 30.0853 12.6363 30.0706C15.0859 30.0559 17.2073 29.6101 18.9417 28.7429C20.7397 27.8463 22.0479 26.5676 22.8318 24.9459C23.2923 24.0052 23.5863 23.0597 23.7136 22.1386C23.8361 21.2665 23.89 20.2083 23.8851 18.9981L23.8165 6.8723L24.5416 6.8674C25.1932 6.8625 25.693 6.57344 26.0359 6.00022C26.3642 5.45149 26.5258 4.7411 26.5209 3.89351C26.5112 3.08512 26.3397 2.38942 26.0016 1.8456Z" fill="#006336" stroke="#221F1F" stroke-width="1.3482" stroke-miterlimit="10" stroke-linecap="round" stroke-linejoin="round"/>
<path d="M26.0015 1.84532C25.6684 1.31619 25.1932 1.04183 24.5954 1.01733C24.615 1.03693 24.6346 1.04673 24.6542 1.06633C25.4234 1.87961 25.5508 3.95203 25.1589 4.98089C24.7228 6.13223 23.5862 5.81377 22.3319 6.13223C22.5328 8.42511 22.5034 11.6783 22.4789 13.9809C22.4495 16.8274 22.5034 18.8607 22.1311 21.6925C21.5677 26.0039 18.5007 28.3213 14.3558 29.1003C10.3776 29.8449 6.17889 29.0464 3.65084 25.6217C2.05856 23.466 1.52453 20.9527 2.26923 18.6451C1.85768 19.1252 1.50003 19.8503 1.50493 20.9135C1.50983 21.7905 1.6715 22.7213 1.98996 23.6669C2.30352 24.6076 2.71507 25.4552 3.2197 26.1901C4.18976 27.5766 5.47828 28.5907 7.05586 29.208C8.55995 29.7959 10.4413 30.0899 12.6411 30.0752C15.0907 30.0605 17.2122 29.6147 18.9465 28.7475C20.7446 27.8509 22.0527 26.5722 22.8366 24.9505C23.2971 24.0099 23.5911 23.0643 23.7185 22.1432C23.8409 21.2711 23.8948 20.2129 23.8899 19.0027L23.8213 6.87692L24.5464 6.87202C25.1981 6.86712 25.6978 6.57806 26.0407 6.00484C26.369 5.45612 26.5307 4.74572 26.5258 3.89813C26.5111 3.08485 26.3396 2.38915 26.0015 1.84532Z" fill="#7A8F44"/>
<path d="M15.0953 5.3585C14.5221 4.92246 14.2429 4.26595 14.3163 3.55065C14.3947 2.78635 15.012 2.4581 15.4726 1.96817C15.4628 1.96327 15.453 1.95347 15.4334 1.95837C14.3016 2.15924 13.7627 3.54575 13.8362 4.56971C13.8754 5.11843 14.3408 5.53977 14.8014 5.76024C15.3501 6.01991 15.8988 5.86803 16.4524 5.99051C16.6533 6.0346 16.7905 5.95622 16.8836 5.83863C16.2418 5.87783 15.6 5.74554 15.0953 5.3585Z" fill="white"/>
<path d="M5.80173 18.3563C4.85616 18.0868 3.82241 18.4445 3.26878 19.2284C3.1855 19.3508 3.33246 19.4145 3.42555 19.341C4.18985 18.7188 5.03743 18.7825 5.87521 19.199C6.57581 19.5468 6.6934 20.4434 7.17843 20.9872C7.31071 21.1391 7.51159 20.9137 7.50669 20.7765C7.4871 19.6056 6.95307 18.6845 5.80173 18.3563Z" fill="white"/>
<path d="M8.16764 22.0995C8.08435 21.9721 8.00106 21.8496 7.92267 21.7272C7.86388 21.639 7.75119 21.6978 7.71689 21.7761C7.60911 22.0015 7.56991 22.2367 7.74629 22.4376C7.91287 22.6237 8.30482 22.3004 8.16764 22.0995Z" fill="white"/>
<path d="M17.0701 9.37079C17.0701 9.25811 16.8986 9.33159 16.8937 9.41488C16.7125 11.6 16.8594 13.7949 16.7908 15.9849C16.7076 18.5423 17.2416 21.9669 15.3064 23.9463C15.1643 24.0933 15.2966 24.3431 15.4827 24.201C17.3592 22.8096 17.1485 20.7029 17.1338 18.606C17.1093 14.1525 17.1093 12.3349 17.0701 9.37079Z" fill="white"/>
</svg>
