<svg width="40" height="40" viewBox="0 0 40 40" fill="none" xmlns="http://www.w3.org/2000/svg">

<path d="M16.5249 33.2897C17.958 33.5631 19.5632 33.6948 21.2951 33.6847C23.6143 33.6695 25.6854 33.3403 27.4476 32.6972C29.225 32.049 30.7138 31.1932 31.8684 30.1501C33.0229 29.1069 33.8888 28.0182 34.4357 26.9143C34.9978 25.78 35.2814 24.6963 35.2763 23.6886C35.2713 22.7164 34.851 21.8656 34.061 21.2276C33.3217 20.6301 32.4406 20.3313 31.4329 20.3364C30.2378 20.3414 29.3314 20.6858 28.7288 21.3491C27.7515 22.4379 27.5185 23.9621 26.6121 25.0964C24.2574 28.0385 19.0062 27.7701 16.4996 25.1825C13.6334 22.2252 13.4056 16.817 16.0995 13.6926C18.0592 11.4189 21.0165 10.1783 23.9333 11.3784C25.0069 11.819 26.6982 12.7912 27.3413 13.7939C27.9186 14.7003 28.4452 15.3333 28.9566 15.7333C29.5542 16.2043 30.3948 16.4423 31.4531 16.4372C32.4507 16.4321 33.3116 16.0979 34.0256 15.4447C34.7497 14.7762 35.1295 13.9458 35.1244 13.0393C35.1143 11.667 34.4864 10.234 33.2559 8.79077C32.0811 7.40834 30.3948 6.24872 28.2376 5.33723C26.1057 4.43586 23.6497 3.98518 20.9507 4.00037C18.7378 4.0105 16.6211 4.3599 14.6665 5.03846C12.6916 5.72208 10.9395 6.72472 9.46082 8.02613C7.97205 9.33767 6.8175 10.9378 6.02248 12.771C5.23252 14.599 4.8426 16.6853 4.85273 18.9691C4.86286 20.3718 5.02996 21.7188 5.34898 22.9696C5.67307 24.2305 6.16426 25.4357 6.80737 26.5446C7.45048 27.6536 8.23032 28.6715 9.14181 29.5728C10.1596 30.5603 11.2889 31.3654 12.4991 31.9731C13.7145 32.5706 15.0665 33.0112 16.5249 33.2897Z" fill="#C5FD03" stroke="#221F1F" stroke-width="1.3482" stroke-miterlimit="10" stroke-linecap="round" stroke-linejoin="round"/>
<path d="M34.0609 21.2172C33.3216 20.6197 32.4405 20.3209 31.4328 20.326C30.2377 20.331 29.3313 20.6754 28.7287 21.3387C27.7513 22.4275 27.5184 23.9517 26.612 25.086C24.2573 28.0281 19.0061 27.7597 16.4995 25.1721C13.6333 22.2148 13.4055 16.8066 16.0994 13.6822C18.0591 11.4085 21.0164 10.1679 23.9332 11.368C25.0067 11.8086 26.6981 12.7808 27.3412 13.7835C27.9184 14.6899 28.4451 15.3229 28.9565 15.7229C29.5541 16.1939 30.3947 16.4319 31.453 16.4268C32.4506 16.4218 33.3114 16.0875 34.0254 15.4343C34.7496 14.7659 35.1294 13.9354 35.1243 13.029C35.1192 12.0466 34.7901 11.0389 34.1571 10.0109C34.304 10.8566 34.2331 11.7326 33.8887 12.5327C33.2659 13.9759 31.1542 14.5279 29.8174 13.7936C26.9867 12.2441 24.946 9.6767 21.4874 9.42351C18.8744 9.23615 16.2665 10.1021 14.3473 11.9149C11.8407 14.2848 10.3266 17.8852 11.0305 21.3489C11.9673 25.9519 15.9222 28.9497 20.6012 28.8687C22.2824 28.8383 23.7003 28.6206 25.1333 27.7648C26.2069 27.1217 27.2753 26.4229 28.4299 25.9317C29.9035 25.3088 31.7011 25.0759 31.61 27.1976C31.4885 29.9625 27.7463 31.5627 25.5334 32.2412C21.6089 33.4363 17.2236 33.4008 13.3801 31.9019C11.785 31.2791 10.3317 30.4436 9.05054 29.446C9.08598 29.4865 9.12143 29.527 9.16194 29.5624C10.1798 30.5499 11.309 31.355 12.5193 31.9627C13.7194 32.5602 15.0715 33.0059 16.5299 33.2793C17.9629 33.5528 19.5682 33.6844 21.3 33.6743C23.6192 33.6591 25.6903 33.3299 27.4526 32.6868C29.23 32.0387 30.7188 31.1829 31.8733 30.1397C33.0279 29.0966 33.8938 28.0078 34.4407 26.9039C35.0028 25.7696 35.2864 24.686 35.2813 23.6782C35.2712 22.7111 34.8509 21.8553 34.0609 21.2172Z" fill="#B4E607"/>
<path d="M16.1754 5.81304C12.8434 6.25865 9.99247 8.72981 8.15936 11.4288C6.15914 14.3709 5.05522 19.136 6.38701 22.544C6.53892 22.9339 7.13139 22.5187 7.08075 22.1997C6.55411 18.7664 6.73641 15.3432 8.56446 12.2897C10.19 9.57548 13.1017 6.83593 16.1754 5.95989C16.2463 5.93963 16.2716 5.80291 16.1754 5.81304Z" fill="white"/>
<path d="M8.02782 25.3393C7.94679 25.1873 7.89616 25.0202 7.84046 24.8582C7.72905 24.529 7.62271 24.2556 7.36952 24.0176C7.24799 23.9011 7.02517 24.0682 7.05555 24.2151C7.09606 24.4176 7.0353 24.6354 7.06062 24.843C7.08087 25.0152 7.15683 25.1873 7.20241 25.3544C7.28849 25.6431 7.42015 26.1495 7.78982 26.1647C8.01769 26.1748 8.24556 25.9824 8.22025 25.7444C8.21012 25.5823 8.10377 25.476 8.02782 25.3393Z" fill="white"/>

</svg>
