<svg width="39" height="39" viewBox="0 0 39 39" fill="none" xmlns="http://www.w3.org/2000/svg">


<path d="M22.6396 32.515C23.8751 32.3377 25.05 32.039 26.1235 31.6136C27.2173 31.1882 28.2402 30.611 29.1719 29.902C30.3366 28.9905 31.3038 27.9423 32.0533 26.7827C32.7976 25.6231 33.3547 24.3115 33.7041 22.8785C34.0484 21.4758 34.2155 19.9111 34.2054 18.2299C34.175 13.0445 32.3419 9.11492 28.7567 6.56781C27.3692 5.5601 25.8045 4.86129 24.1081 4.50176C22.4775 4.15741 20.5178 3.99031 18.2695 4.00043L9.88879 4.05614C8.23797 4.06626 7.03784 4.40554 6.22256 5.09929C5.36677 5.82848 4.93634 6.94759 4.94646 8.42624L5.05787 28.0233C5.06293 29.0057 5.17434 29.8008 5.39715 30.4489C5.6706 31.249 6.23774 31.8719 7.07834 32.2871C7.82273 32.6568 8.84057 32.834 10.1876 32.8239L18.5784 32.7783C20.0671 32.7783 21.4394 32.6871 22.6396 32.515ZM13.5297 26.4637L13.4588 14.2243L15.9097 14.2092C17.3326 14.199 18.553 14.3206 19.5405 14.5738C20.4216 14.7966 21.1559 15.3181 21.7736 16.1689C22.3965 17.0247 22.7206 18.3868 22.7307 20.2149C22.7459 22.8177 22.0572 24.5799 20.6191 25.618C20.3304 25.8307 19.981 26.0029 19.5759 26.1295C19.1354 26.2662 18.71 26.3472 18.3049 26.3827C17.8694 26.4181 17.2466 26.4434 16.4566 26.4434L13.5297 26.4637Z" fill="#FF2103" stroke="#221F1F" stroke-width="1.3482" stroke-miterlimit="10" stroke-linecap="round" stroke-linejoin="round"/>
<path d="M19.7685 14.0573C18.224 13.7079 16.4264 13.4142 14.8464 13.7484C14.3552 13.8497 14.0919 14.0168 13.9704 14.2244L15.9098 14.2143C17.3328 14.2041 18.5532 14.3257 19.5406 14.5789C20.4217 14.8017 21.156 15.3233 21.7738 16.174C22.3966 17.0298 22.7207 18.392 22.7308 20.22C22.746 22.8228 22.0573 24.585 20.6192 25.6231C20.3306 25.8358 19.9812 26.008 19.5761 26.1346C19.1355 26.2713 18.7101 26.3523 18.305 26.3878C17.8695 26.4232 17.2467 26.4485 16.4567 26.4485L13.9248 26.4637C15.3629 27.6031 18.2291 27.4107 19.7128 26.8942C22.5232 25.9067 24.0829 23.2735 24.1639 20.3567C24.25 17.4197 22.7815 14.7409 19.7685 14.0573Z" fill="#FF563F"/>
<path d="M28.7618 6.57757C27.3743 5.56987 25.8096 4.87105 24.1132 4.51152C22.4827 4.16718 20.523 4.00007 18.2746 4.0102L15.53 4.02539C22.9688 5.66101 29.6632 11.211 30.0227 19.2017C30.1493 22.0578 29.8202 25.2227 27.9466 27.5267C25.8451 30.1143 22.7105 31.0917 19.4747 31.3246C17.3783 31.4765 15.2717 31.4512 13.1753 31.5018C11.4587 31.5424 9.49389 31.7044 7.81776 31.2588C6.54167 30.9195 5.71626 30.2815 5.14404 29.3953C5.19975 29.7852 5.28076 30.1397 5.3871 30.4536C5.66055 31.2537 6.2277 31.8766 7.0683 32.2918C7.81269 32.6615 8.83053 32.8387 10.1775 32.8286L18.5683 32.783C20.0672 32.7729 21.4395 32.6817 22.6396 32.5146C23.8752 32.3374 25.05 32.0386 26.1236 31.6132C27.2174 31.1879 28.2403 30.6106 29.172 29.9017C30.3367 28.9902 31.3039 27.942 32.0533 26.7823C32.7977 25.6227 33.3547 24.3112 33.7042 22.8781C34.0485 21.4754 34.2156 19.9107 34.2055 18.2295C34.1802 13.0492 32.347 9.12469 28.7618 6.57757Z" fill="#D11900"/>
<path d="M10.0356 5.25098C7.14922 5.28136 6.35419 8.44627 6.2833 10.7706C6.2276 12.5682 6.27823 14.3811 6.27316 16.1838C6.26303 18.1891 6.11112 19.1766 6.25797 22.149C6.27823 22.5339 6.98211 22.5643 7.02262 22.2858C7.45811 19.4298 7.11377 16.3914 7.23531 13.5051C7.37203 10.3047 6.73904 7.23601 10.0609 5.45859C10.1622 5.40796 10.1622 5.25098 10.0356 5.25098Z" fill="white"/>
<path d="M7.04285 24.2303C6.99727 24.0126 6.84535 23.9721 6.69344 24.0177C6.62761 23.9822 6.52126 24.048 6.50101 24.1139C6.50101 24.1189 6.50101 24.124 6.50101 24.1291C6.40986 24.205 6.32884 24.3063 6.30858 24.4126C6.2225 24.8684 6.28832 25.4001 6.30351 25.8609C6.30858 25.8609 6.31364 25.8558 6.3187 25.8558C6.39466 26.2609 7.03777 26.0786 7.0479 25.6837C7.06309 25.2229 7.13906 24.676 7.04285 24.2303Z" fill="white"/>

</svg>
