<svg width="36" height="33" viewBox="0 0 36 33" fill="none" xmlns="http://www.w3.org/2000/svg">
<path d="M34.8387 19.0306C34.8334 17.8137 34.5424 16.8561 33.9763 16.179C33.4208 15.5123 32.6854 15.0838 31.7966 14.8933C31.0771 14.7399 30.1988 14.6659 29.1936 14.6764L21.5593 14.7188C20.406 14.724 19.4537 15.0097 18.7342 15.56C17.9353 16.1737 17.5121 17.0043 17.5174 17.9619C17.5226 19.1258 18.0834 20.0411 19.0886 20.5331C19.8875 20.9246 20.9721 21.1098 22.4111 21.0992L26.5536 21.078L26.5695 23.8397C25.4426 24.3211 24.321 24.7073 23.2312 24.9877C22.9878 25.0512 22.7391 25.0988 22.4905 25.1518C20.115 25.4586 17.3957 25.3581 15.2371 23.7709C13.0521 22.1626 12.2638 19.9247 12.1104 17.2582C11.9358 14.1791 13.7187 11.2852 16.237 9.65569C18.1152 8.43886 20.5065 8.22194 22.6122 8.93617C25.2733 9.83556 26.4214 13.0046 29.5269 12.9887C30.6485 12.9835 31.6273 12.6449 32.442 11.9835C33.315 11.2746 33.7753 10.354 33.77 9.32238C33.7647 8.44944 33.4367 7.5183 32.7701 6.48664C32.1511 5.52904 31.2358 4.61907 30.0507 3.78845C28.8815 2.96841 27.3578 2.28593 25.5273 1.76216C23.7126 1.24368 21.6122 0.989736 19.2897 1.00032C16.4804 1.01619 13.9198 1.38124 11.6871 2.09018C9.41749 2.80969 7.46528 3.85722 5.87282 5.21161C4.26448 6.58186 3.03178 8.26427 2.20645 10.2218C1.39171 12.1528 0.989622 14.3061 1.0002 16.6128C1.01078 18.9618 1.45519 21.1256 2.31755 23.0408C3.18521 24.9666 4.43907 26.6278 6.04211 27.9716C7.63457 29.3101 9.57092 30.3312 11.7982 31.019C13.9938 31.6962 16.4539 32.0348 19.0992 32.0189C21.3583 32.0083 23.4798 31.7755 25.4003 31.3311C27.3208 30.8867 29.3365 30.1778 31.3945 29.2255C32.1563 28.871 32.8018 28.4901 33.3044 28.0986C33.9022 27.633 34.3255 27.0881 34.5583 26.4797C34.7699 25.9242 34.8757 25.2364 34.8704 24.3846L34.8387 19.0306Z" fill="#D31920" stroke="#221F1F" stroke-width="1.3482" stroke-miterlimit="10" stroke-linecap="round" stroke-linejoin="round"/>
<path d="M28.9978 9.02581C26.3895 9.4755 24.5749 7.59735 22.2047 6.93603C19.3425 6.13715 15.9566 6.62918 13.4753 8.31158C8.59738 11.6235 8.00483 18.8821 11.5865 23.4161C13.5652 25.9239 16.9935 27.2465 20.1731 26.6593C21.7127 26.3789 24.1146 25.7334 25.2415 24.3526C24.5643 24.5959 23.8871 24.8181 23.2205 24.9927C22.9771 25.0562 22.7285 25.1038 22.4798 25.1567C20.1044 25.4636 17.385 25.3631 15.2265 23.7759C13.0415 22.1676 12.2532 19.9297 12.0997 17.2632C11.9251 14.1841 13.7081 11.2902 16.2264 9.66067C18.1045 8.44384 20.4959 8.22693 22.6015 8.94115C25.2627 9.84055 26.4107 13.0096 29.5163 12.9937C30.6379 12.9884 31.6166 12.6498 32.4314 11.9885C33.3043 11.2796 33.7646 10.359 33.7593 9.32737C33.754 8.45442 33.426 7.52328 32.7594 6.49162C32.2938 5.77211 31.6642 5.08433 30.8812 4.43359C31.5796 6.32762 31.1934 8.65018 28.9978 9.02581Z" fill="#D31920"/>
<path d="M34.8387 19.0304C34.8334 17.8135 34.5424 16.8559 33.9764 16.1787C33.4208 15.5121 32.6855 15.0836 31.7966 14.8931C31.0771 14.7397 30.1989 14.6656 29.1937 14.6762L21.5594 14.7186C20.4061 14.7238 19.4538 15.0095 18.7342 15.5598C18.2898 15.8983 17.9777 16.311 17.7766 16.766C18.9511 16.2052 20.3108 16.1946 21.607 16.1787C23.8767 16.1523 26.1516 16.1999 28.4213 16.2634C29.5164 16.2951 30.5798 16.3322 31.4739 17.0252C32.5796 17.8823 32.6537 19.9245 32.6431 21.1678C32.6326 22.7285 32.4844 24.3844 31.5797 25.7123C29.982 28.0614 27.506 29.548 24.7972 30.3046C18.9617 31.9341 11.5073 31.6272 6.53948 27.8127C4.86766 26.5271 3.49211 24.9822 2.42871 23.2575C3.29107 25.0828 4.49732 26.6699 6.03159 27.9608C7.62405 29.2993 9.56039 30.3204 11.7877 31.0082C13.9833 31.6854 16.4434 32.024 19.0887 32.0081C21.3478 31.9975 23.4693 31.7648 25.3898 31.3203C27.3102 30.8759 29.326 30.167 31.384 29.2147C32.1458 28.8602 32.7913 28.4793 33.2939 28.0878C33.8917 27.6222 34.315 27.0773 34.5477 26.4689C34.7594 25.9134 34.8652 25.2256 34.8599 24.3738L34.8387 19.0304Z" fill="#D31920"/>
<path d="M12.5072 2.7196C8.73504 3.79358 5.69825 6.48648 3.80952 9.88302C2.03718 13.0785 1.52929 18.1469 3.04239 21.5117C3.2593 21.9984 4.04231 21.4958 3.94708 21.062C3.63493 19.6706 3.28575 18.4537 3.26459 17.0094C3.23285 14.8403 3.56086 12.7082 4.37561 10.6872C5.81464 7.12135 9.15299 4.49723 12.5284 2.89948C12.6342 2.85715 12.6553 2.67727 12.5072 2.7196Z" fill="white"/>
<path d="M5.23783 24.321C5.21667 24.284 5.18492 24.2469 5.16376 24.2099C4.89394 23.8872 4.83046 23.4533 4.5818 23.1148C4.34901 22.7973 3.76176 23.2682 3.84641 23.5856C3.97338 24.0459 4.18501 24.5379 4.51831 24.8924C4.80929 25.2045 5.44945 24.6702 5.23783 24.321Z" fill="white"/>
<path d="M25.9347 19.4912C24.247 19.56 19.8559 20.0944 18.9565 18.0998C18.9141 17.9993 18.7872 18.1104 18.7872 18.1845C18.7607 22.2 26.8024 18.5019 27.1463 20.9938C27.1939 21.3535 27.6806 21.1102 27.7177 20.8562C27.8975 19.523 27.0722 19.4436 25.9347 19.4912Z" fill="white"/>
</svg>
