<svg width="38" height="39" viewBox="0 0 38 39" fill="none" xmlns="http://www.w3.org/2000/svg">

<path d="M6.1107 31.8065C6.91585 32.5053 8.12105 32.8446 9.79718 32.8345L19.5097 32.7788C21.2162 32.7686 22.7353 32.6876 24.0215 32.5357C25.3483 32.3787 26.5484 32.1154 27.5966 31.7407C29.3183 31.0925 30.7058 30.0797 31.7237 28.7226C32.7617 27.3402 33.2833 25.7704 33.2732 24.0537C33.258 21.0002 31.668 18.762 28.5436 17.3796C30.6602 15.9769 31.7186 14.0577 31.7034 11.6625C31.6983 10.7459 31.511 9.86483 31.1464 9.04449C30.7868 8.23427 30.2653 7.48482 29.5968 6.82146C28.9385 6.17329 28.179 5.63145 27.3333 5.21622C26.3509 4.72503 25.2318 4.38575 24.0165 4.2237C22.8569 4.06672 21.4795 3.99077 19.9249 4.00089L9.63514 4.0566C7.99952 4.06672 6.80951 4.406 5.99929 5.08962C5.14857 5.81375 4.7232 6.93286 4.73333 8.42164L4.84474 28.515C4.85486 29.9734 5.28023 31.0773 6.1107 31.8065ZM19.3881 13.9311C19.1957 14.2957 18.8817 14.6097 18.4564 14.7768C17.9702 14.9692 17.2512 15.0654 16.3093 15.0755L13.2558 15.0907L13.2355 11.0396C13.2355 11.0396 15.8535 11.0245 15.8687 11.0245C16.8714 11.0194 18.2589 11.146 19.0438 11.8094C19.6666 12.336 19.7527 13.2424 19.3881 13.9311ZM20.8111 24.5449C20.8313 26.292 18.5425 26.6667 17.0132 26.6768L13.3216 26.6971C13.3216 26.6971 13.2963 22.0839 13.2963 22.0788C13.2963 21.9725 17.2967 22.0181 17.6563 22.0637C19.0387 22.2409 20.6034 22.8384 20.7908 24.2816C20.806 24.3778 20.8111 24.4639 20.8111 24.5449Z" fill="#0097D8" stroke="#221F1F" stroke-width="1.3482" stroke-miterlimit="10" stroke-linecap="round" stroke-linejoin="round"/>
<path d="M17.5398 10.2394C16.6232 10.1331 15.656 10.0774 14.7344 10.1736C14.3748 10.2141 12.2885 10.3306 13.195 10.8775C13.2709 10.923 13.3621 10.9787 13.4583 11.0344C14.0963 11.0294 15.8535 11.0193 15.8636 11.0193C16.8663 11.0142 18.2537 11.1408 19.0386 11.8042C19.6615 12.3308 19.7526 13.2372 19.3881 13.931C19.1956 14.2956 18.8817 14.6095 18.4563 14.7766C17.9702 14.9691 17.2511 15.0653 16.3092 15.0754L13.6963 15.0906C14.4204 16.1084 16.9169 15.7742 17.955 15.678C19.6463 15.5261 21.9554 13.3739 20.5021 11.5915C19.7729 10.6952 18.6538 10.366 17.5398 10.2394Z" fill="#0097D8"/>
<path d="M14.5573 21.6178C14.4459 21.6228 12.947 21.6988 13.0939 21.8406C13.1749 21.9165 13.2559 21.9925 13.3369 22.0685C13.742 21.9824 17.3171 22.028 17.6564 22.0735C19.0388 22.2508 20.6035 22.8483 20.7909 24.2915C20.801 24.3826 20.8112 24.4687 20.8112 24.5497C20.8314 26.2968 18.5426 26.6715 17.0133 26.6816L13.7167 26.7019C14.6333 27.6792 16.9981 27.6539 18.0666 27.5374C19.7883 27.3501 22.6341 26.2158 21.6315 23.7902C20.4769 21 16.9626 21.5317 14.5573 21.6178Z" fill="#0097D8"/>
<path d="M28.5486 17.3848C30.6653 15.9821 31.7236 14.0629 31.7084 11.6677C31.7034 10.7512 31.516 9.87005 31.1514 9.0497C30.7919 8.23949 30.2703 7.49004 29.6019 6.82667C28.9436 6.1785 28.184 5.63667 27.3383 5.22143C27.2269 5.16573 27.1054 5.11509 26.9889 5.06445C28.2397 6.11773 29.2069 7.43433 29.612 9.05983C30.4577 12.4374 28.498 16.9392 25.1659 18.3621C26.8623 19.1875 28.584 20.0686 29.531 21.6688C30.9894 24.14 30.8577 27.0669 28.8372 29.1684C26.6193 31.4724 22.239 31.3053 19.3071 31.3408C17.3068 31.361 15.3016 31.2699 13.3064 31.3205C10.4504 31.3914 7.3412 31.0319 5.77647 28.2873C5.33085 27.5024 5.03208 26.6162 4.82446 25.6845L4.83965 28.5253C4.84978 29.9837 5.27514 31.0876 6.10562 31.8117C6.91077 32.5105 8.11596 32.8498 9.7921 32.8397L19.5046 32.784C21.2111 32.7738 22.7302 32.6928 24.0165 32.5409C25.3432 32.3839 26.5433 32.1206 27.5915 31.7459C29.3132 31.0977 30.7007 30.0849 31.7186 28.7278C32.7567 27.3454 33.2782 25.7756 33.2681 24.059C33.258 21.0055 31.673 18.7672 28.5486 17.3848Z" fill="#0097D8"/>
<path d="M8.76922 5.12498C5.87776 6.12256 6.10564 9.72802 6.12083 12.2701C6.13096 14.4779 6.21198 16.6807 6.3487 18.8784C6.48542 21.0913 6.06512 23.4764 6.49049 25.6538C6.56138 26.0286 7.03738 25.7754 7.08296 25.512C7.33615 24.079 7.17917 22.5649 7.17917 21.1116C7.17917 19.2177 7.11334 17.3289 7.04751 15.435C6.98675 13.7487 6.98675 12.0625 7.007 10.3762C7.02726 8.67474 7.03232 6.13775 8.7996 5.22625C8.85024 5.19587 8.84011 5.10472 8.76922 5.12498Z" fill="white"/>
<path d="M21.7022 4.97324C21.6364 4.97831 21.5807 5.06946 21.6111 5.12009C22.72 5.31252 23.6569 5.71256 24.4164 6.27972C24.7608 6.49746 25.0798 6.73546 25.3634 6.99372C26.2597 7.82419 26.5939 8.82177 26.6952 9.8953C26.842 10.5435 26.9028 11.2271 26.8825 11.9259C27.0193 11.936 27.1914 11.8449 27.2421 11.698C28.5637 8.06219 25.2672 4.81626 21.7022 4.97324Z" fill="white"/>
<path d="M28.6448 21.699C27.9764 20.7672 26.6092 19.7545 25.3787 19.7848C26.6092 20.3014 27.9663 21.3698 28.5182 22.4738C29.0398 23.5169 29.0905 24.5803 28.9132 25.6437C29.0246 25.6437 29.1462 25.583 29.2019 25.4817C29.8399 24.2765 29.4044 22.7624 28.6448 21.699Z" fill="white"/>

</svg>
