<svg width="27" height="33" viewBox="0 0 27 33" fill="none" xmlns="http://www.w3.org/2000/svg">
<path d="M24.7884 1.80447C24.0636 1.25425 23.069 0.989724 21.741 1.00031L5.88524 1.09024C4.79538 1.09554 3.90126 1.23838 3.15529 1.52936C2.3088 1.86267 1.67396 2.40231 1.26658 3.13769C0.890953 3.81489 0.705757 4.66138 0.711048 5.656L0.832753 27.141C0.843334 28.6012 1.28244 29.7387 2.13951 30.5164C2.97013 31.2676 4.03355 31.6433 5.30329 31.6327C6.55186 31.6274 7.60466 31.2412 8.4247 30.4899C9.27648 29.7122 9.70504 28.5694 9.69975 27.0881L9.65212 18.9565C12.345 18.9406 15.0697 19.0464 17.7626 18.9142C20.1539 18.7925 22.1961 16.6657 20.6406 14.2902C19.5455 12.6131 17.5457 12.5126 15.7469 12.5337C14.1121 12.5496 12.4826 12.5549 10.8478 12.5655C10.4404 12.5655 10.033 12.5708 9.62037 12.5708L9.59393 7.5659L21.7728 7.49712C23.1007 7.48654 24.0954 7.21672 24.8096 6.65592C25.5926 6.0475 26 5.20631 25.9947 4.21168C25.9947 3.23292 25.5767 2.39701 24.7884 1.80447Z" fill="#0086B6" stroke="#221F1F" stroke-width="1.3482" stroke-miterlimit="10" stroke-linecap="round" stroke-linejoin="round"/>
<path opacity="0.4" d="M24.7885 1.80416C24.1325 1.30685 23.2384 1.05819 22.0903 1.01587C22.5718 1.31214 22.9844 1.69835 23.2595 2.26444C23.7992 3.35959 23.0903 4.89385 22.0586 5.41233C19.9582 6.47044 17.1066 6.26411 14.837 6.34876C12.5461 6.4387 10.7632 6.1583 8.65758 6.31702C8.82687 8.86707 8.4777 11.1579 8.7581 13.7026C9.3718 13.7291 10.2712 13.581 10.5992 13.5704C11.7208 13.5439 12.8424 13.5016 13.9693 13.491C15.7258 13.4752 17.1384 13.4487 18.5245 14.6761C20.1963 16.1628 18.3922 17.6018 16.8368 17.8028C14.128 18.1467 11.2711 18.0885 8.50946 18.0674C8.60998 19.2048 8.56235 20.3423 8.52531 21.4956C8.47241 23.3738 8.78984 25.3789 8.36131 27.2253C7.89574 29.204 6.24507 30.8441 4.05478 29.9764C2.5258 29.3733 1.51533 28.2411 0.838135 26.8603V27.1301C0.848716 28.5903 1.28782 29.7278 2.14489 30.5055C2.97551 31.2567 4.0389 31.6324 5.30864 31.6218C6.55721 31.6165 7.61005 31.2303 8.43009 30.479C9.28187 29.7013 9.71039 28.5586 9.7051 27.0772L9.6575 18.9456C12.3504 18.9297 15.075 19.0355 17.7679 18.9033C20.1593 18.7816 22.2014 16.6548 20.646 14.2793C19.5509 12.6022 17.551 12.5017 15.7522 12.5229C14.1175 12.5387 12.488 12.544 10.8532 12.5546C10.4458 12.5546 10.0384 12.5599 9.62576 12.5599L9.59931 7.55501L21.7782 7.48623C23.1061 7.47565 24.1007 7.20583 24.815 6.64503C25.598 6.03662 26.0054 5.19542 26.0001 4.20079C25.9948 3.23262 25.5768 2.39671 24.7885 1.80416Z" fill="#0086B6"/>
<path d="M5.00163 2.0531C2.58384 2.71971 1.79024 4.67722 1.77966 7.01565C1.76379 10.5762 1.57861 14.142 1.86959 17.6973C1.91192 18.2158 2.70552 17.8931 2.7161 17.491C2.79546 15.142 2.60499 12.3538 2.60499 10.0048C2.60499 6.88868 2.06536 4.26456 5.05982 2.25414C5.16563 2.18537 5.14977 2.01078 5.00163 2.0531Z" fill="white"/>
<path d="M2.21877 18.7821C2.09708 18.6816 1.91192 18.8033 1.89605 18.9408C1.86431 19.1948 1.81669 19.4328 1.79553 19.6868C1.77436 19.9354 1.80609 20.1947 1.81138 20.4486C1.82196 20.6761 2.08121 20.7396 2.2558 20.6761C2.47801 20.5968 2.61026 20.3904 2.60497 20.1576C2.59439 19.7397 2.56794 19.0731 2.21877 18.7821Z" fill="white"/>
</svg>
