<svg width="15" height="16" viewBox="0 0 15 16" fill="none" xmlns="http://www.w3.org/2000/svg">
<path d="M14.25 0.5C14.664 0.5 15 0.844615 15 1.26923V12.0385C15 12.4631 14.664 12.8077 14.25 12.8077H3.34125L0 15.5V1.26923C0 0.844615 0.336 0.5 0.75 0.5H14.25ZM13.5 2.03846H1.5V12.3346L2.82225 11.2692H13.5V2.03846ZM6.38625 3.89385L6.7215 4.42308C5.4705 5.11769 5.49225 6.23231 5.49225 6.47231C5.6085 6.45692 5.73075 6.45385 5.85225 6.46538C6.52875 6.53 7.062 7.1 7.062 7.80769C7.062 8.55077 6.474 9.15385 5.7495 9.15385C5.34675 9.15385 4.962 8.96538 4.719 8.7C4.33275 8.28 4.125 7.80769 4.125 7.04231C4.125 5.69615 5.046 4.49 6.38625 3.89385ZM10.1363 3.89385L10.4715 4.42308C9.2205 5.11769 9.24225 6.23231 9.24225 6.47231C9.3585 6.45692 9.48075 6.45385 9.60225 6.46538C10.2788 6.53 10.812 7.1 10.812 7.80769C10.812 8.55077 10.224 9.15385 9.4995 9.15385C9.09675 9.15385 8.712 8.96538 8.469 8.7C8.08275 8.28 7.875 7.80769 7.875 7.04231C7.875 5.69615 8.796 4.49 10.1363 3.89385Z" fill="#545454"/>
</svg>
