<svg width="13" height="13" viewBox="0 0 13 13" fill="none" xmlns="http://www.w3.org/2000/svg">
<path d="M6.5 13C10.0945 13 13 10.0874 13 6.5C13 2.91135 10.0945 0 6.5 0C2.912 0 0 2.91135 0 6.5C0 10.0874 2.912 13 6.5 13ZM6.5 4.59485C6.188 4.59485 5.9345 4.34135 5.9345 4.02935C5.9345 3.71735 6.188 3.45735 6.5065 3.45735C6.8185 3.45735 7.072 3.71735 7.072 4.02935C7.072 4.34135 6.8185 4.59485 6.5 4.59485ZM6.5 9.5355C6.188 9.5355 5.928 9.27485 5.928 8.9635V6.0905C5.928 5.77785 6.188 5.525 6.5 5.525C6.812 5.525 7.0655 5.77785 7.0655 6.0905V8.9635C7.0655 9.27485 6.812 9.5355 6.5 9.5355Z" fill="#EC1C24"/>
</svg>
