<svg width="16" height="19" viewBox="0 0 16 19" fill="none" xmlns="http://www.w3.org/2000/svg">
<path d="M2.66667 6.33333V5.42857C2.66667 3.98882 3.22857 2.60805 4.22876 1.58999C5.22896 0.571937 6.58551 0 8 0C9.41449 0 10.771 0.571937 11.7712 1.58999C12.7714 2.60805 13.3333 3.98882 13.3333 5.42857V6.33333H15.1111C15.3469 6.33333 15.573 6.42866 15.7397 6.59833C15.9063 6.76801 16 6.99814 16 7.2381V18.0952C16 18.3352 15.9063 18.5653 15.7397 18.735C15.573 18.9047 15.3469 19 15.1111 19H0.888889C0.653141 19 0.427048 18.9047 0.260349 18.735C0.0936505 18.5653 0 18.3352 0 18.0952V7.2381C0 6.99814 0.0936505 6.76801 0.260349 6.59833C0.427048 6.42866 0.653141 6.33333 0.888889 6.33333H2.66667ZM14.2222 8.14286H1.77778V17.1905H14.2222V8.14286ZM7.11111 13.329C6.77219 13.1298 6.50731 12.8224 6.35755 12.4543C6.20778 12.0863 6.18151 11.6783 6.2828 11.2935C6.38409 10.9088 6.60728 10.5688 6.91776 10.3263C7.22824 10.0838 7.60865 9.95234 8 9.95234C8.39135 9.95234 8.77176 10.0838 9.08224 10.3263C9.39272 10.5688 9.61591 10.9088 9.7172 11.2935C9.81849 11.6783 9.79222 12.0863 9.64245 12.4543C9.49269 12.8224 9.22781 13.1298 8.88889 13.329V15.381H7.11111V13.329ZM4.44444 6.33333H11.5556V5.42857C11.5556 4.46874 11.181 3.54822 10.5142 2.86952C9.84736 2.19081 8.94299 1.80952 8 1.80952C7.05701 1.80952 6.15264 2.19081 5.48584 2.86952C4.81905 3.54822 4.44444 4.46874 4.44444 5.42857V6.33333Z" fill="#545454"/>
</svg>
