<svg width="19" height="18" viewBox="0 0 19 18" fill="none" xmlns="http://www.w3.org/2000/svg">
<path fill-rule="evenodd" clip-rule="evenodd" d="M8.61134 0C10.8743 0 12.7153 1.791 12.7153 3.9924V4.8312C12.7153 5.2038 12.4045 5.5062 12.0215 5.5062C11.6384 5.5062 11.3276 5.2038 11.3276 4.8312V3.9924C11.3276 2.5344 10.1092 1.35 8.61134 1.35H4.10121C2.60524 1.35 1.38773 2.5344 1.38773 3.9924V14.0085C1.38773 15.4656 2.60524 16.65 4.10121 16.65H8.62152C10.1129 16.65 11.3276 15.4692 11.3276 14.0184V13.1697C11.3276 12.7971 11.6384 12.4947 12.0215 12.4947C12.4045 12.4947 12.7153 12.7971 12.7153 13.1697V14.0184C12.7153 16.2144 10.878 18 8.62152 18H4.10121C1.84013 18 0 16.2099 0 14.0085V3.9924C0 1.791 1.84013 0 4.10121 0H8.61134ZM16.0867 5.8986L18.7955 8.5221C18.8197 8.54543 18.8413 8.56968 18.8612 8.59535L18.7955 8.5221C18.8283 8.55354 18.8575 8.58789 18.8828 8.62452C18.8939 8.64112 18.9046 8.65828 18.9146 8.67592C18.9227 8.68971 18.9301 8.70409 18.937 8.71872C18.9428 8.73164 18.9484 8.74457 18.9536 8.75769C18.9606 8.7748 18.9667 8.79238 18.9721 8.8102C18.9761 8.82423 18.9798 8.83823 18.9831 8.8524C18.9872 8.86959 18.9904 8.88689 18.993 8.90431C18.9945 8.91565 18.9959 8.92752 18.997 8.93948C18.9991 8.96001 19 8.97997 19 9L18.9953 9.0558L18.9934 9.09155C18.9932 9.09308 18.993 9.09461 18.9927 9.09613L19 9C19 9.04996 18.9943 9.09943 18.9833 9.14753C18.9798 9.16177 18.9761 9.17577 18.9719 9.18959C18.9667 9.20762 18.9606 9.2252 18.9538 9.24251C18.9484 9.25543 18.9428 9.26836 18.9368 9.28108C18.9301 9.29591 18.9227 9.31029 18.9147 9.32441C18.9046 9.34172 18.8939 9.35888 18.8824 9.37552C18.8759 9.38538 18.8688 9.39513 18.8614 9.40469C18.8394 9.43288 18.8154 9.4594 18.7894 9.48396L16.0867 12.1023C15.9516 12.2337 15.774 12.2994 15.5973 12.2994C15.4197 12.2994 15.2411 12.2337 15.106 12.1005C14.8359 11.8359 14.8368 11.4093 15.1079 11.1465L16.625 9.675H7.16607C6.78305 9.675 6.4722 9.3726 6.4722 9C6.4722 8.6274 6.78305 8.325 7.16607 8.325H16.6269L15.1079 6.8544C14.8368 6.5916 14.835 6.165 15.106 5.9004C15.3762 5.6358 15.8147 5.6358 16.0867 5.8986Z" fill="black"/>
</svg>
