<svg width="15" height="12" viewBox="0 0 15 12" fill="none" xmlns="http://www.w3.org/2000/svg">
<path d="M0.75 0H14.25C14.4489 0 14.6397 0.0702379 14.7803 0.195262C14.921 0.320286 15 0.489856 15 0.666667V11.3333C15 11.5101 14.921 11.6797 14.7803 11.8047C14.6397 11.9298 14.4489 12 14.25 12H0.75C0.551088 12 0.360322 11.9298 0.21967 11.8047C0.0790176 11.6797 0 11.5101 0 11.3333V0.666667C0 0.489856 0.0790176 0.320286 0.21967 0.195262C0.360322 0.0702379 0.551088 0 0.75 0ZM13.5 2.82533L7.554 7.55867L1.5 2.81067V10.6667H13.5V2.82533ZM1.88325 1.33333L7.54575 5.77467L13.1265 1.33333H1.88325Z" fill="#545454"/>
</svg>
