<svg width="17" height="16" viewBox="0 0 17 16" fill="none" xmlns="http://www.w3.org/2000/svg">
<path d="M13.1364 4.57143H17V6.09524H13.1364V4.57143ZM11.5909 8.38095H17V9.90476H11.5909V8.38095ZM13.9091 12.1905H17V13.7143H13.9091V12.1905ZM0 16C0 14.3834 0.651297 12.8331 1.81061 11.69C2.96993 10.5469 4.5423 9.90476 6.18182 9.90476C7.82134 9.90476 9.39371 10.5469 10.553 11.69C11.7123 12.8331 12.3636 14.3834 12.3636 16H10.8182C10.8182 14.7876 10.3297 13.6248 9.46022 12.7675C8.59074 11.9102 7.41146 11.4286 6.18182 11.4286C4.95218 11.4286 3.7729 11.9102 2.90341 12.7675C2.03393 13.6248 1.54545 14.7876 1.54545 16H0ZM6.18182 9.14286C3.62023 9.14286 1.54545 7.09714 1.54545 4.57143C1.54545 2.04571 3.62023 0 6.18182 0C8.74341 0 10.8182 2.04571 10.8182 4.57143C10.8182 7.09714 8.74341 9.14286 6.18182 9.14286ZM6.18182 7.61905C7.88955 7.61905 9.27273 6.25524 9.27273 4.57143C9.27273 2.88762 7.88955 1.52381 6.18182 1.52381C4.47409 1.52381 3.09091 2.88762 3.09091 4.57143C3.09091 6.25524 4.47409 7.61905 6.18182 7.61905Z" fill="#545454"/>
</svg>
