<svg width="15" height="16" viewBox="0 0 15 16" fill="none" xmlns="http://www.w3.org/2000/svg">
<path d="M9.99999 1.6H1.66666V14.4H13.3333V4.8H9.99999V1.6ZM0 0.7936C0 0.3552 0.3725 0 0.832499 0H10.8333L15 4V15.1944C15.0007 15.2995 14.98 15.4036 14.9388 15.501C14.8976 15.5983 14.8369 15.6869 14.76 15.7617C14.6832 15.8365 14.5918 15.8961 14.4909 15.937C14.3901 15.9778 14.2819 15.9993 14.1725 16H0.827499C0.608648 15.9985 0.399181 15.9145 0.244348 15.766C0.0895148 15.6175 0.00174554 15.4165 0 15.2064V0.7936ZM10.8333 7.2V8.8H4.16666V7.2H10.8333Z" fill="#545454"/>
</svg>
